<svg width="428" height="926" viewBox="0 0 428 926" fill="none" xmlns="http://www.w3.org/2000/svg">
<g clip-path="url(#clip0_175_2638)">
<rect width="428" height="926" fill="#D2EEF2"/>
<rect x="-21" y="-8" width="459" height="211" fill="url(#paint0_linear_175_2638)"/>
<path d="M-11.8862 820.908L-1.55007 819.278L0.271139 830.821L14.6736 828.549L25.982 840.752L41.6872 838.274L46.6693 847.168L59.7582 845.103L76.3356 842.487L86.1766 849.539L95.1131 848.129L104.71 846.615L105.834 853.742L110.22 853.051L110.961 857.744L117.593 856.698L126.178 855.343L138.664 853.373L139.478 858.536L146.893 857.366L162.095 847.269L169.129 846.159L174.725 847.684L187.511 846.147L191.416 845.531L204.642 848.255L212.4 843.662L223.559 841.421L238.777 839.021L253.676 837.384L260.55 837.238L269.623 837.436L275.657 837.051L290.264 833.305L322.118 817.213L339.584 816.384L348.63 815.437L349.674 822.055L361.69 820.16L370.971 818.233L370.12 812.834L386.205 810.296L401 810.296L409.159 808.552L408.52 804.501L412.26 803.911L413.867 799.506L419.619 799.523L422.843 798.09L422.063 793.142L428.193 791.713L454.124 976.943L238.787 1010.92L23.4505 1044.89L-11.8862 820.908Z" fill="#ADDBE7"/>
<path d="M45.0306 875.558L-8.38917 851.108L-8.38935 942.915L433.973 942.914L433.973 887.115L416.104 898.468L389.67 901.471L343.967 886.979L312.803 884.144L285.348 881.646L248.342 894.053L215.367 902.62L185.687 899.92L157.368 885.777L113.291 888.227L65.0649 877.381L45.0306 875.558Z" fill="#C4E6EF"/>
<g clip-path="url(#clip1_175_2638)">
<path opacity="0.78" d="M433 1078V522L-15 522V1078H433Z" fill="url(#paint1_linear_175_2638)"/>
</g>
<g clip-path="url(#clip2_175_2638)">
<path d="M368.378 795.653L359.951 775L348.207 776.828L345.512 791.685L362.408 799.923L344.5 824.348L348.916 828.185L355.319 828.575L367.597 822.498L368.645 813.516L375.243 824.413L378.438 821.602L386.243 815.915L374.318 802.106L394.532 799.035L392.877 793.297L385.079 787.812L368.378 795.653Z" fill="#4B9199"/>
<path d="M283.686 878.776L288.933 891.942L296.716 888.842L298.219 879.571L294.165 869.397L304.16 865.762L303.928 856.49L295.56 856.36L290.949 857.849L278.772 839.473L272.238 846.583L273.489 852.328L276.828 860.703L270.244 863.327L266.956 866.376L268.798 871.882L274.06 876.37L282.32 874.469L283.686 878.776Z" fill="#4B9199"/>
<path d="M286.62 871.302C288.985 871.204 290.798 868.635 290.671 865.565C290.543 862.494 288.523 860.085 286.158 860.183C283.793 860.282 281.979 862.85 282.107 865.921C282.235 868.991 284.255 871.4 286.62 871.302Z" fill="white"/>
<path d="M367.786 807.226C370.478 807.114 372.587 805.265 372.497 803.096C372.407 800.926 370.152 799.259 367.46 799.37C364.768 799.482 362.659 801.331 362.749 803.501C362.839 805.67 365.095 807.338 367.786 807.226Z" fill="white"/>
<path d="M69.7114 920.725L70.1812 931.933L81.4118 932.128L80.0097 914.358L88.5809 913.997L88.2556 906.092L79.6845 906.446L67.4928 899.031L53.104 902.269L53.2919 906.879L60.8946 915.146L47.3008 937.497L57.1872 937.092L69.7114 920.725Z" fill="#4B9199"/>
<path d="M71.6189 916.089C74.5021 915.969 76.7622 914.013 76.6668 911.72C76.5715 909.428 74.157 907.666 71.2738 907.786C68.3905 907.906 66.1305 909.862 66.2258 912.154C66.3211 914.447 68.7357 916.209 71.6189 916.089Z" fill="white"/>
<path d="M149.872 975.124L147.834 925.855L130.042 883.611L125.156 904.798L126.385 934.382L138.678 967.905L139.335 983.709L148.376 983.333L149.872 975.124Z" fill="#4B9199"/>
<path d="M430.587 944.073L429.199 910.536L411.985 881.992L406.817 896.488L407.656 916.627L419.493 939.303L419.941 950.063L428.99 949.688L430.587 944.073Z" fill="white"/>
<path d="M373.473 937.858L378.806 888.835L399.381 847.87L402.836 869.339L399.634 898.771L385.13 931.405L383.424 947.129L374.419 946.147L373.473 937.858Z" fill="#4B9199"/>
<path d="M292.358 959.732L277.716 922.546L273.604 932.352L280.968 949.001L283.642 970.709L293.174 966.322L292.358 959.732Z" fill="#4B9199"/>
<path d="M294.996 958.937L295.653 919.72L301.868 907.277L310.447 902.081L309.702 913.954L306.233 934.158L299.194 965.202L294.996 958.937Z" fill="white"/>
<path d="M239.717 972.739L249.372 921.108L249.994 905.716L243.887 869.44L244.74 848.397L237.665 858.16L236.66 883.061L231.428 899.928L234.109 946.277L232.931 975.399L239.717 972.739Z" fill="#B0CED1"/>
<path d="M181.367 988.875L184.894 949.55L200.222 922.408L201.039 942.187L199.543 959.797L185.378 986.968L181.367 988.875Z" fill="white"/>
<path d="M438.001 875.792L422.644 869.772L412.187 838.895" fill="#F0EFEF"/>
<path d="M444 869.014L439.794 843.483L411.385 827.528" fill="#F0EFEF"/>
<path d="M359.445 948.697L338.711 880.091L330.104 908.837L340.431 921.512L352.182 947.708L359.445 948.697Z" fill="#B0CED1"/>
<path d="M316.633 816.76L318.129 852.82L327.582 952.123" stroke="#B0CED1" stroke-width="1.34" stroke-miterlimit="10"/>
<path d="M316.323 825.613C325.283 825.613 332.547 818.349 332.547 809.39C332.547 800.43 325.283 793.167 316.323 793.167C307.362 793.167 300.098 800.43 300.098 809.39C300.098 818.349 307.362 825.613 316.323 825.613Z" fill="#F0EFEF"/>
<path d="M301.55 816.667C302.579 818.699 304.019 820.496 305.78 821.941C307.54 823.387 309.582 824.45 311.776 825.064" stroke="#4B9199" stroke-width="1.34" stroke-miterlimit="10"/>
<path d="M315.491 792.936C312.813 793.047 310.203 793.814 307.891 795.17C305.579 796.526 303.635 798.428 302.23 800.711" stroke="#4B9199" stroke-width="1.34" stroke-miterlimit="10"/>
<path d="M332.46 811.037C332.544 810.233 332.571 809.424 332.539 808.617C332.453 806.468 331.943 804.357 331.037 802.406C330.132 800.455 328.849 798.703 327.264 797.25" stroke="#4B9199" stroke-width="1.34" stroke-miterlimit="10"/>
<path d="M321.743 824.688C325.317 823.395 328.329 820.899 330.263 817.628" stroke="#4B9199" stroke-width="1.34" stroke-miterlimit="10"/>
<path d="M314.591 811.724L316.411 813.342L318.03 811.523L316.21 809.904L314.591 811.724Z" fill="#4B9199"/>
<path d="M312.445 809.83L314.265 811.448L315.884 809.629L314.064 808.01L312.445 809.83Z" fill="#4B9199"/>
<path d="M314.413 807.628L316.232 809.247L317.851 807.428L316.032 805.809L314.413 807.628Z" fill="#4B9199"/>
<path d="M316.559 809.515L318.378 811.134L319.997 809.315L318.178 807.696L316.559 809.515Z" fill="#4B9199"/>
<path d="M95.6201 969.921L99.2769 936.644L112.813 905.528L112.741 934.57L110.182 955.873L104.141 969.943L95.6201 969.921Z" fill="#B0CED1"/>
<path d="M117.785 874.404L120.451 965.224" stroke="#B0CED1" stroke-width="1.34" stroke-miterlimit="10"/>
<path d="M118.059 874.636C125.735 874.636 131.957 868.414 131.957 860.739C131.957 853.065 125.735 846.843 118.059 846.843C110.384 846.843 104.162 853.065 104.162 860.739C104.162 868.414 110.384 874.636 118.059 874.636Z" fill="#F0EFEF"/>
<path d="M126.609 871.962C128.149 870.764 129.422 869.259 130.348 867.542C131.274 865.825 131.831 863.934 131.986 861.99" stroke="#B0CED1" stroke-width="1.34" stroke-miterlimit="10"/>
<path d="M104.364 864.129C104.896 866.363 105.969 868.432 107.489 870.153C109.009 871.874 110.929 873.195 113.08 874" stroke="#B0CED1" stroke-width="1.34" stroke-miterlimit="10"/>
<path d="M116.788 846.916C116.096 846.974 115.41 847.085 114.735 847.248C112.946 847.676 111.259 848.452 109.771 849.534C108.282 850.615 107.022 851.98 106.063 853.549" stroke="#B0CED1" stroke-width="1.34" stroke-miterlimit="10"/>
<path d="M130.034 853.672C128.357 850.88 125.762 848.757 122.692 847.667" stroke="#B0CED1" stroke-width="1.34" stroke-miterlimit="10"/>
<path d="M120.312 861.834L121.375 860.036L119.577 858.974L118.514 860.772L120.312 861.834Z" fill="#B0CED1"/>
<path d="M118.382 862.679L119.447 860.883L117.651 859.818L116.586 861.614L118.382 862.679Z" fill="#B0CED1"/>
<path d="M116.887 862.643L117.95 860.845L116.152 859.783L115.089 861.581L116.887 862.643Z" fill="#B0CED1"/>
<path d="M117.451 859.275L118.517 857.479L116.72 856.414L115.655 858.21L117.451 859.275Z" fill="#B0CED1"/>
<path d="M265.879 914.712C265.879 914.712 269.254 906.33 254.8 884.485C254.8 884.463 254.966 910.81 265.879 914.712Z" fill="#4B9199"/>
<path d="M357.906 856.577C357.906 856.577 372.714 859.974 374.571 833.974C374.571 833.974 362.704 842.132 357.906 856.577Z" fill="#4B9199"/>
<path d="M282.32 874.469L265.878 914.691L265.546 976.374" stroke="#B0CED1" stroke-width="1.02" stroke-miterlimit="10"/>
<path d="M368.645 813.516L377.708 846.475L364.193 957.001" stroke="#B0CED1" stroke-width="1.02" stroke-miterlimit="10"/>
<path d="M69.7113 920.725L64.1538 946.248L71.6626 1002.34" stroke="#B0CED1" stroke-width="1.02" stroke-miterlimit="10"/>
<path d="M198.322 887.441L205.245 880.214L199.962 873.458L193.14 884.312L191.405 879.203L181.96 881.175L188.977 893.048L178.368 898.265L182.719 907.782L190.307 908.057L196.58 897.796L209.531 899.516L213.036 895.483L210.94 889.276L198.322 887.441Z" fill="#4B9199"/>
<path d="M197.006 899.653L207.847 919.995L214.553 985.335" stroke="#B0CED1" stroke-width="1.11" stroke-miterlimit="10"/>
<path d="M193.177 895.146C195.474 895.051 197.271 893.402 197.19 891.464C197.11 889.526 195.182 888.033 192.885 888.128C190.588 888.224 188.791 889.872 188.872 891.81C188.952 893.748 190.88 895.242 193.177 895.146Z" fill="white"/>
</g>
</g>
<defs>
<linearGradient id="paint0_linear_175_2638" x1="208.5" y1="-8" x2="208.5" y2="203" gradientUnits="userSpaceOnUse">
<stop stop-color="#B7EAF1"/>
<stop offset="1" stop-color="#D2EEF2"/>
</linearGradient>
<linearGradient id="paint1_linear_175_2638" x1="208.996" y1="522" x2="208.996" y2="1078.06" gradientUnits="userSpaceOnUse">
<stop stop-color="#FCF5E6" stop-opacity="0"/>
<stop offset="1" stop-color="#FCF5E6"/>
</linearGradient>
<clipPath id="clip0_175_2638">
<rect width="428" height="926" fill="white"/>
</clipPath>
<clipPath id="clip1_175_2638">
<rect width="448" height="556" fill="white" transform="translate(-15 522)"/>
</clipPath>
<clipPath id="clip2_175_2638">
<rect width="398" height="229" fill="white" transform="translate(46 775)"/>
</clipPath>
</defs>
</svg>
