<svg width="38" height="40" viewBox="0 0 38 40" fill="none" xmlns="http://www.w3.org/2000/svg">
<path d="M31.6915 4.03417L37.037 0.0557175C32.8843 -0.370622 31.178 1.73688 30.4797 3.40498C27.2354 2.1514 23.7037 3.79427 23.7037 3.79427L34.3991 7.40741C33.8596 6.06632 32.9203 4.89618 31.6915 4.03417Z" fill="#252525"/>
<path d="M7.10026 17.3674L11.8519 13.389C8.16055 12.9626 6.64383 15.0701 6.02311 16.7382C3.13932 15.4846 0 17.1275 0 17.1275L9.50704 20.7407C9.02743 19.3996 8.19255 18.2294 7.10026 17.3674Z" fill="#252525"/>
<path d="M31.6915 36.6267L37.037 32.6482C32.8843 32.2219 31.178 34.3294 30.4797 35.9975C27.2354 34.7439 23.7037 36.3868 23.7037 36.3868L34.3991 39.9999C33.8596 38.6589 32.9203 37.4887 31.6915 36.6267Z" fill="#252525"/>
</svg>
