<svg width="135" height="56" viewBox="0 0 135 56" fill="none" xmlns="http://www.w3.org/2000/svg">
<g clip-path="url(#clip0_175_1528)">
<path d="M60.7324 4.6138H51.8041L50.1971 12.5948L38.8601 17.677L32.2663 15.029L22.2961 16.2055L17.6165 17.6438L9.61349 25.765L0.360241 25.2561L0 31.5811L8.33852 33.5395L14.1871 37.1022L25.171 37.7071L26.8945 46.4626L31.0266 46.9273L43.1689 47.5985L46.1179 51.8288L55.2016 52.7766H63.8969L67.9619 51.6222L74.9301 52.7766L82.9684 56H92.0345L97.975 52.7766L105.166 47.6907L109.856 44.6149H115.482L123.298 46.7687V41.8451L127.988 40.0011L136.429 38.1533L145.181 41.2329L153 39.3851V33.5395L141.119 30.2645V27.3841V19.0785L125.487 13.4357H119.547L117.357 16.6149L106.727 10.4631L104.226 4.6138L95.1001 0H82.6541L80.468 5.22972L71.3984 1.84773L64.8328 1.23182H60.8348L60.7324 4.6138Z" fill="white"/>
</g>
<defs>
<clipPath id="clip0_175_1528">
<rect width="153" height="56" fill="white"/>
</clipPath>
</defs>
</svg>
