<svg width="178" height="140" viewBox="0 0 178 140" fill="none" xmlns="http://www.w3.org/2000/svg">
<g clip-path="url(#clip0_175_1526)">
<path d="M-32.4854 22.8347L-52.1684 24.1055L-54.6275 41.1165L-78.9306 53.4168L-93.8266 48.7871L-115.647 52.6801L-125.768 56.3707L-142.309 74.5868L-162.777 74.8336L-162.712 88.185L-144.064 91.1162L-130.686 97.7752L-106.39 97.4837L-101.402 115.649L-92.2289 116.038L-65.3694 115.721L-58.2938 124.197L-38.1395 124.897L-18.9704 123.659L-10.1654 120.653L5.35313 122.089L23.5117 127.723L43.4984 126.432L56.1568 118.809L71.3187 107.091L81.2409 99.9554L93.644 99.1546L111.167 102.571L110.498 92.218L120.588 87.6728L138.946 82.586L158.657 87.8159L175.645 82.8176L174.851 70.5256L148.214 65.3301L147.823 59.2733L146.696 41.8086L111.469 32.1681L98.3727 33.0136L93.977 40.0103L69.7059 28.5877L63.3993 16.6439L42.6539 8.24115L15.216 10.0127L11.1064 21.3207L-9.34718 15.5001L-23.905 15.1395L-32.7188 15.7086L-32.4854 22.8347Z" fill="white"/>
</g>
<defs>
<clipPath id="clip0_175_1526">
<rect width="338" height="118" fill="white" transform="translate(-167 21.7773) rotate(-3.69414)"/>
</clipPath>
</defs>
</svg>
