<svg width="128" height="133" viewBox="0 0 128 133" fill="none" xmlns="http://www.w3.org/2000/svg">
<g clip-path="url(#clip0_233_1005)">
<path d="M1.49943 123.194C1.49943 115.579 1.59939 107.963 1.44945 100.397C1.39947 97.3608 0.849684 94.3245 0.449841 91.2882C-0.499788 83.9215 0.34988 76.6045 1.34949 69.2875C1.64937 67.2467 1.54941 65.1064 1.24953 63.1153C0.0499967 55.0019 -0.299867 46.9383 0.499821 38.8249C1.09959 32.9016 1.69935 26.9784 1.89927 21.0551C2.04922 16.0278 1.59939 10.9507 1.44945 5.92336C1.34949 2.04087 1.49943 1.9911 5.44789 1.64267C16.5935 0.746712 27.6892 0.945814 38.8348 1.34402C49.3807 1.74222 59.9266 0.696936 70.4725 0.597386C77.7696 0.54761 85.1168 1.24447 92.4139 1.14492C100.011 1.04536 107.608 0.298733 115.205 8.01142e-05C117.904 -0.0994708 120.653 0.0498555 123.352 0.448059C125.401 0.746712 125.851 2.5884 126.001 4.47987C126.351 10.0049 126.75 15.53 127 21.0551C127.35 30.3133 127.65 39.5218 127.9 48.78C128.05 54.4046 128.1 60.0293 128.05 65.6041C128 69.835 127.55 74.0162 127.55 78.2471C127.55 83.2246 128.15 88.2022 127.95 93.1299C127.55 103.782 126.8 114.384 126.201 125.036C126.151 125.534 126.101 126.032 126.101 126.529C126.101 131.706 125.301 132.801 119.753 132.901C112.856 133.05 105.909 132.054 98.9613 131.756C94.663 131.606 90.3147 132.005 86.0164 132.005C78.4694 132.005 70.8723 132.204 63.3253 131.805C51.4299 131.208 39.5846 130.76 27.6892 131.905C22.3413 132.403 16.8934 131.606 11.4955 131.357C9.09646 131.258 6.6974 131.109 4.24836 131.009C2.29912 130.959 1.34949 130.063 1.49943 128.072C1.59939 126.43 1.49943 124.737 1.49943 123.095C1.44945 123.194 1.44945 123.194 1.49943 123.194ZM21.9914 127.923C24.2405 127.823 27.0395 127.624 29.8883 127.525C37.4354 127.326 45.0324 126.927 52.5795 127.027C60.7263 127.127 68.8731 128.023 76.9699 128.122C87.6658 128.271 98.3616 127.923 109.057 127.873C110.857 127.873 112.656 128.371 114.455 128.67C116.005 128.918 117.554 129.217 119.103 129.317C121.003 129.416 122.052 128.57 121.952 126.529C121.852 125.185 121.902 123.841 122.052 122.547C123.552 110.452 124.002 98.3564 123.902 86.1614C123.852 80.2381 124.002 74.265 124.002 68.3418C124.002 66.2014 123.852 64.0611 123.802 61.871C123.702 58.8347 123.602 55.7486 123.602 52.7123C123.602 44.3002 123.852 35.8384 123.602 27.4263C123.402 21.0053 122.452 14.5843 122.052 8.16325C121.752 3.63369 121.253 3.03638 116.704 3.68346C116.305 3.73324 115.905 3.88256 115.505 3.93234C107.858 4.47987 100.161 5.27628 92.5139 5.4256C85.1168 5.57493 77.7197 4.8283 70.3225 4.92785C61.0762 5.0274 51.8797 6.02291 42.6334 5.87358C30.888 5.62471 19.1925 4.47987 7.44711 5.62471C6.39752 5.72426 5.39791 5.57493 5.44789 7.11797C5.49787 9.70629 5.59783 12.2448 5.54785 14.8332C5.44789 21.7022 5.74777 28.5712 5.04804 35.3904C4.1484 44.0513 3.84851 52.6127 5.34793 61.2737C5.99767 65.0566 5.19799 69.1382 4.99806 73.0704C4.74816 78.0978 4.04843 83.1251 4.19838 88.1524C4.3983 95.0712 5.44789 101.99 5.74777 108.909C5.94769 114.334 5.59783 119.81 5.44789 125.285C5.39791 126.38 5.44789 127.226 6.9473 127.276C11.7454 127.375 16.5935 127.674 21.9914 127.923Z" fill="#6EBEC7"/>
<path d="M91.2644 36.6348C93.5135 36.6845 95.6627 38.2276 97.512 40.2186C98.7115 41.463 99.861 42.8567 100.711 44.35C101.061 44.997 100.611 46.0921 100.511 46.9881C99.7111 46.6396 98.7115 46.4405 98.1117 45.893C96.6623 44.5491 95.5127 42.8567 93.9633 41.6621C90.3648 38.9244 86.6662 39.8702 84.4171 43.8522C83.7173 45.0966 83.0176 46.341 82.068 47.3365C81.6182 47.7845 80.4186 48.0831 79.9188 47.7845C79.419 47.4858 79.0192 46.341 79.1691 45.7437C80.6685 40.3182 85.2667 36.7343 91.2644 36.6348Z" fill="#6EBEC7"/>
<path d="M47.7314 46.2912C47.3316 46.8885 47.1316 47.5854 46.7318 47.7347C46.232 47.9338 45.2824 47.9338 44.9325 47.5854C43.9829 46.6396 43.0332 45.5446 42.5334 44.35C40.7841 40.1191 36.5358 38.7253 32.7873 41.5626C31.1379 42.7572 29.9384 44.5491 28.439 45.9428C27.8892 46.4903 26.9895 46.6894 26.2898 47.0378C26.1898 46.1917 25.64 44.8975 26.0399 44.4993C28.239 42.0603 30.3382 39.3724 33.0372 37.6303C36.8357 35.2411 42.9333 37.5805 44.9825 41.5626C45.8322 43.1056 46.7818 44.6486 47.7314 46.2912Z" fill="#6EBEC7"/>
<path d="M35.786 53.4589C38.9848 53.4589 41.3338 54.8526 41.9836 57.3912C42.1335 58.088 41.7837 59.3822 41.2839 59.5813C40.7341 59.8302 39.4846 59.5315 38.9848 58.984C36.4358 56.1965 35.2362 56.1468 32.7372 58.7849C32.2374 59.2826 31.2378 59.2826 30.4381 59.4817C30.2382 58.5858 29.7384 57.64 29.9383 56.8934C30.4881 55.0019 33.3869 53.4091 35.786 53.4589Z" fill="#6EBEC7"/>
<path d="M91.4143 52.8616C93.0637 53.9566 94.913 54.8526 96.3124 56.1965C96.8622 56.7441 96.9122 58.6355 96.4124 59.2328C95.4128 60.4274 94.5131 59.4319 93.6635 58.4364C91.8642 56.1965 89.665 56.3956 87.9157 58.5857C87.4159 59.2328 86.2164 59.3324 85.3167 59.6808C85.1668 58.7351 84.667 57.6898 84.9669 56.8934C85.8665 54.5042 87.9657 53.4589 91.4143 52.8616Z" fill="#6EBEC7"/>
<path d="M59.3769 107.266C57.5776 106.022 55.7783 104.927 54.1789 103.583C53.829 103.284 53.929 101.99 54.2788 101.442C54.5287 101.094 55.8782 100.944 56.2281 101.243C58.877 103.782 61.576 103.234 64.4749 101.691C64.9247 101.442 66.2742 101.89 66.4741 102.338C66.724 102.886 66.4241 104.18 65.9243 104.429C63.9751 105.474 61.8759 106.221 59.3769 107.266Z" fill="#6EBEC7"/>
<path d="M59.7766 67.9932C60.5264 69.2376 61.1761 69.8349 61.326 70.5815C61.9758 73.8169 62.5756 77.0523 62.9254 80.3375C62.9754 80.885 61.9258 82.1792 61.476 82.0796C60.5763 81.9303 59.1769 81.2334 59.0769 80.6361C58.6271 77.2016 58.5271 73.7173 58.3772 70.2331C58.4272 69.7353 59.0769 69.138 59.7766 67.9932Z" fill="#6EBEC7"/>
</g>
<defs>
<clipPath id="clip0_233_1005">
<rect width="128" height="133" fill="white"/>
</clipPath>
</defs>
</svg>
