<svg width="32" height="32" viewBox="0 0 32 32" fill="none" xmlns="http://www.w3.org/2000/svg">
<path d="M4 23.3334V13.3787C4 12.0943 4.61679 10.888 5.65804 10.136L13.5899 4.40743C15.0207 3.37407 16.9596 3.4006 18.3616 4.47272L25.7631 10.1327C26.7528 10.8895 27.3333 12.0642 27.3333 13.3101V23.3334C27.3333 25.5426 25.5425 27.3334 23.3333 27.3334H20C19.2636 27.3334 18.6667 26.7365 18.6667 26.0001V22.6668C18.6667 21.9304 18.0697 21.3334 17.3333 21.3334H14.6667C13.9303 21.3334 13.3333 21.9304 13.3333 22.6668V26.0001C13.3333 26.7365 12.7364 27.3334 12 27.3334H8C5.79086 27.3334 4 25.5426 4 23.3334Z" stroke="#4B9199" stroke-width="1.5" stroke-linejoin="round"/>
</svg>
