<svg width="103" height="184" viewBox="0 0 103 184" fill="none" xmlns="http://www.w3.org/2000/svg">
<g clip-path="url(#clip0_175_1673)">
<path d="M29.5628 20.825L29.2247 32.3861C29.16 34.4981 29.1076 36.6754 29.8064 38.6441C30.471 40.5315 31.7645 42.06 32.6747 43.827C33.947 46.3073 34.4185 49.1888 35.5573 51.7379C35.7389 52.2288 36.0495 52.6603 36.4556 52.9857C36.8044 53.186 37.1963 53.2971 37.5971 53.3093C45.4747 54.1828 53.9022 51.5007 59.1642 45.0368C59.3906 44.8139 59.5295 44.5154 59.5553 44.1966C59.4895 43.8525 59.32 43.5374 59.07 43.2947C57.4943 41.2369 59.7864 38.2971 57.7352 35.2934C56.8577 34.0069 57.4705 35.5237 56.5563 34.2872C55.6422 33.0507 53.7622 28.8074 54.7835 27.663C55.2782 27.1048 55.8159 25.5997 56.5304 25.4356C58.5702 24.9019 58.5023 24.2966 61.5201 23.7896C62.1819 23.6813 64.0872 24.3427 64.8794 24.9696C65.9302 25.8093 65.8581 27.1341 66.0419 28.546L66.5786 33.0828C69.4707 31.1024 70.5121 27.0869 71.1833 23.4081C71.8545 19.7292 72.5418 16.5148 75.0819 14.0231C76.344 12.7856 76.9407 13.1327 78.2837 12.3581C78.3215 12.3362 78.3542 12.3064 78.3795 12.2705C78.4048 12.2347 78.4222 12.1937 78.4304 12.1504C78.4386 12.1071 78.4375 12.0625 78.4272 12.0197C78.4168 11.9769 78.3975 11.9368 78.3704 11.9023C75.9174 8.80399 79.5217 10.3065 70.1314 3.55722C66.9575 1.27931 64.2456 1.47308 60.4431 1.21084C57.1314 1.00684 53.8076 1.20098 50.5415 1.78916C47.5377 2.43802 44.7187 3.84263 41.9372 5.23544C39.2677 6.56552 36.5669 7.94006 34.4917 10.2188C31.9963 13.0102 30.7445 16.8008 29.6202 20.501" fill="url(#paint0_linear_175_1673)"/>
<path d="M36.4714 52.9688L37.5395 61.8183C37.5395 61.8183 37.2617 65.4607 43.3982 64.1327L71.0764 63.4943C71.0764 63.4943 73.5699 63.6664 73.5201 60.1026C73.5201 60.1026 74.084 56.2185 80.7045 55.7377C80.7045 55.7377 89.286 56.2232 87.7938 47.0172L85.0085 31.8539L81.6314 25.9173C81.6314 25.9173 80.24 23.8935 81.3924 20.7066C81.3924 20.7066 82.4024 16.5005 78.6872 12.294C78.6872 12.294 71.3094 12.9563 71.1821 23.3588C71.1821 23.3588 69.7111 33.3331 66.5774 33.0335C66.5774 33.0335 67.183 21.8271 60.3741 23.9744C60.3741 23.9744 52.5566 24.5375 55.6628 32.5417C55.6628 32.5417 58.488 34.9206 58.6651 38.383C58.6651 38.383 58.3206 42.6449 59.6332 43.8284L59.1902 44.9923C59.1902 44.9923 52.8488 54.297 36.4714 52.9688Z" fill="#FDFDFD"/>
<path d="M67.3202 41.3546C67.3498 42.2488 67.1077 43.1305 66.6268 43.8808C66.1458 44.631 65.449 45.2137 64.6304 45.5503C64.3829 45.6612 64.1167 45.723 63.8462 45.7324C58.3271 45.7339 58.7803 40.5674 58.7803 40.5674C58.8753 38.4769 58.3797 36.402 57.3517 34.5859C57.2037 34.3267 57.0161 34.0929 56.7957 33.8933C54.6734 32.0231 54.6316 29.2738 54.8324 27.6781C54.8778 27.2936 55.0107 26.925 55.2206 26.6014C55.4306 26.2778 55.7118 26.0079 56.0423 25.813C68.0396 18.9259 66.4589 32.5769 66.4589 32.5769C66.4589 32.5769 66.8485 35.6517 69.4702 30.1454C70.7227 27.3912 71.3491 24.3873 71.3034 21.3548C71.2895 21.2259 71.2865 21.0962 71.2944 20.9668C71.4557 19.7657 72.5282 14.049 78.6083 12.1482" stroke="#B0CACC" stroke-miterlimit="10"/>
<path d="M36.5521 52.7209C36.5521 52.7209 48.6203 53.3557 53.0711 49.8849C53.0711 49.8849 58.6727 46.2017 59.623 43.856" stroke="#B0CACC" stroke-miterlimit="10"/>
<path d="M37.5395 61.8183C37.3438 57.5471 36.3868 48.367 32.0127 39.9437C31.9456 39.8157 31.8687 39.6932 31.7829 39.5772C30.9138 38.4217 25.429 30.0787 33.1206 12.35C33.1206 12.35 37.6667 2.23918 60.0476 1.15433C60.1713 1.14061 60.2959 1.13774 60.42 1.14574C62.1472 1.34101 74.905 3.07529 78.4894 11.9105C78.5408 12.0401 78.6033 12.1649 78.6762 12.2834L80.863 15.7815C81.004 16.0114 81.1099 16.2615 81.1772 16.5234C81.6486 18.4483 81.5924 20.4667 81.0148 22.3611C80.9148 22.663 80.8709 22.981 80.8852 23.2991C81.0058 24.7487 81.5572 26.1276 82.4669 27.2541C82.5457 27.3512 82.615 27.4558 82.6739 27.5664L85.0081 31.8321C85.1312 32.0598 85.2206 32.3046 85.2732 32.5586C85.6685 34.4796 87.406 43.0786 87.7663 46.9961C87.7663 46.9961 89.0754 55.0526 81.6163 55.7003C81.6163 55.7003 75.2896 55.3378 73.4927 60.0815C73.394 60.3613 73.346 60.6569 73.3508 60.9541C73.3686 61.5955 73.1377 62.2183 72.7075 62.6891C72.2772 63.1599 71.6819 63.4414 71.049 63.4731L39.9704 64.1899C39.3401 64.1931 38.7333 63.947 38.2792 63.504C37.8252 63.0611 37.5598 62.4562 37.5395 61.8183Z" stroke="#B0CACC" stroke-miterlimit="10"/>
<path d="M38.6318 63.0506C38.6318 63.0506 -3.68854 63.6057 3.10912 100.307C3.10912 100.307 7.79223 122.83 8.00159 131.907C8.00159 131.907 0.567589 170.872 13.8449 178.975C13.8449 178.975 72.3913 188.636 96.1483 175.802C96.1483 175.802 104.797 158.106 99.6161 122.686L99.5177 82.5986C99.5177 82.5986 102.749 61.6046 80.7543 62.1119L38.6318 63.0506Z" fill="url(#paint1_linear_175_1673)"/>
<path d="M38.6593 64.2421C38.6593 64.2421 -3.66133 64.7862 3.11226 100.444C3.11226 100.444 7.78037 122.316 7.98305 131.104C7.98305 131.104 0.523464 168.959 13.7951 176.816C13.7951 176.816 72.3824 188.254 96.1477 175.775C96.1477 175.775 104.76 156.505 99.6022 122.085L99.5304 83.1507C99.5304 83.1507 102.776 62.7633 80.781 63.2706" stroke="#B6D3D6" stroke-miterlimit="10"/>
<path d="M86.8198 35.4537L86.2434 35.992L86.5515 36.4662L86.9942 36.456L87.2928 36.0553L87.2827 35.618L86.8198 35.4537Z" fill="#F4F4F4"/>
<path d="M44.8299 137.427L43.5818 138.583L44.2428 139.606L45.1983 139.584L45.8428 138.722L45.821 137.776L44.8299 137.427Z" fill="#F4F4F4"/>
<path d="M18.8177 95.8056L17.5696 96.961L18.2306 97.9848L19.1862 97.9628L19.8253 97.1004L19.8035 96.1547L18.8177 95.8056Z" fill="#F4F4F4"/>
<path d="M70.4928 85.9419L69.2393 87.0975L69.9057 88.1212L70.8559 88.0993L71.5002 87.2313L71.4786 86.2911L70.4928 85.9419Z" fill="#F4F4F4"/>
<path d="M54.015 105.541L52.4462 104.97L51.9536 106.097L52.4597 106.961L53.4842 107.117L54.2343 106.619L54.015 105.541Z" fill="#F4F4F4"/>
<path d="M88.6305 133.153L87.3824 134.308L88.0434 135.332L88.999 135.31L89.6434 134.442L89.6217 133.502L88.6305 133.153Z" fill="#F4F4F4"/>
<path d="M65.278 152.752L64.0244 153.907L64.6908 154.931L65.641 154.909L66.2854 154.041L66.2637 153.101L65.278 152.752Z" fill="#F4F4F4"/>
<path d="M18.6718 148.479L17.4181 149.629L18.0791 150.653L19.0347 150.631L19.6792 149.769L19.6575 148.828L18.6718 148.479Z" fill="#F4F4F4"/>
<path d="M83.8508 164.746L83.3354 163.714L83.8016 162.615L84.9839 162.587L85.6563 163.638L85.0331 164.719L83.8508 164.746Z" fill="#F4F4F4"/>
<path d="M41.0012 79.383L41.3757 78.2861L42.4528 77.9167L43.2679 78.8276L42.9939 80.0645L41.8164 80.2994L41.0012 79.383Z" fill="#F4F4F4"/>
<path d="M85.8808 94.4831L85.104 93.8228L85.4675 93.191L86.0398 93.1778L86.4457 93.6825L86.4587 94.2455L85.8808 94.4831Z" fill="#F4F4F4"/>
<path d="M35.5579 164.379L34.7811 163.718L35.1446 163.086L35.7169 163.073L36.1227 163.573L36.1358 164.141L35.5579 164.379Z" fill="#F4F4F4"/>
<path d="M24.0006 123.375L23.2238 122.72L23.5927 122.082L24.1595 122.069L24.5655 122.574L24.5785 123.137L24.0006 123.375Z" fill="#F4F4F4"/>
<path d="M23.9508 82.3514L24.9429 82.2738L25.0785 83.0036L24.6723 83.4231L24.0549 83.3553L23.6836 82.9482L23.9508 82.3514Z" fill="#F4F4F4"/>
<path d="M86.3423 114.49L85.5654 113.83L85.9289 113.198L86.5012 113.185L86.9072 113.689L86.9201 114.252L86.3423 114.49Z" fill="#F4F4F4"/>
</g>
<defs>
<linearGradient id="paint0_linear_175_1673" x1="29.031" y1="27.7375" x2="78.7524" y2="26.5907" gradientUnits="userSpaceOnUse">
<stop stop-color="#668C8D" stop-opacity="0"/>
<stop offset="0.04" stop-color="#658C8C" stop-opacity="0.04"/>
<stop offset="0.71" stop-color="#468685"/>
</linearGradient>
<linearGradient id="paint1_linear_175_1673" x1="3.0732" y1="123.802" x2="100.778" y2="121.549" gradientUnits="userSpaceOnUse">
<stop stop-color="#668C8D" stop-opacity="0"/>
<stop offset="0.04" stop-color="#658C8C" stop-opacity="0.04"/>
<stop offset="1" stop-color="#468685"/>
</linearGradient>
<clipPath id="clip0_175_1673">
<rect width="98.2706" height="181.491" fill="white" transform="translate(0 2.26587) rotate(-1.32127)"/>
</clipPath>
</defs>
</svg>
