<svg width="128" height="133" viewBox="0 0 128 133" fill="none" xmlns="http://www.w3.org/2000/svg">
<g clip-path="url(#clip0_233_1000)">
<path d="M127.448 18.1044C127.598 28.285 127.9 38.4657 127.9 48.5961C127.9 57.6734 127.498 66.7507 127.448 75.828C127.448 81.5954 128.151 87.3627 128 93.0799C127.699 103.01 126.996 112.889 126.443 122.769C126.343 124.775 126.242 126.781 126.092 128.787C125.941 131.044 124.987 132.749 122.577 132.9C119.966 133.05 117.304 133 114.643 132.9C111.831 132.799 109.018 132.599 106.206 132.448C105.302 132.398 104.348 132.749 103.445 132.599C94.9581 130.693 86.4716 133 77.9851 132.649C69.5489 132.298 61.1126 131.746 52.6764 131.646C44.7423 131.546 36.8082 132.097 28.8741 132.147C23.4508 132.198 18.0275 132.047 12.6042 131.897C9.84232 131.846 7.08045 131.596 4.3688 131.445C2.05888 131.345 1.15499 130.292 1.35586 127.885C2.15931 118.055 2.25974 108.225 1.30564 98.4461C1.10478 96.2896 0.652836 94.1832 0.401757 92.0267C-0.451911 84.7549 0.401757 77.5833 1.15499 70.3616C1.5065 67.1018 1.45629 63.5912 0.652835 60.4317C-0.0501852 57.7737 0.60262 55.3163 0.351541 52.8088C0.0502463 50.1508 -0.0501852 47.4928 0.100462 44.8348C0.60262 37.5128 1.5065 30.2409 1.75758 22.9189C1.95845 16.8507 1.55672 10.7824 1.35586 4.71416C1.30564 3.05918 1.60694 1.70511 3.4147 1.60481C11.5497 1.2036 19.7348 0.651945 27.92 0.651945C36.1052 0.651945 44.2903 1.40421 52.4755 1.35406C61.4139 1.30391 70.3523 0.551644 79.2907 0.451342C84.1114 0.401191 88.9824 1.003 93.8031 1.25376C94.8074 1.30391 95.8117 1.15345 96.816 1.15345C100.783 1.05315 104.8 1.05315 108.767 0.852549C110.676 0.752247 112.534 0.250739 114.442 0.150437C117.254 -1.54637e-05 120.066 -1.54637e-05 122.828 0.150437C124.887 0.250739 125.891 1.70511 126.042 3.71115C126.443 8.52563 126.795 13.3401 127.197 18.1546C127.247 18.1044 127.347 18.1044 127.448 18.1044ZM124.736 31.0935C124.535 31.0935 124.384 31.0935 124.184 31.0935C124.184 29.0875 124.284 27.0814 124.184 25.0754C123.732 19.1576 123.129 13.29 122.727 7.37216C122.426 3.15949 121.271 2.10632 117.053 2.90873C116.4 3.00903 115.747 3.30994 115.095 3.41024C112.182 3.71115 109.32 4.01205 106.407 4.1625C104.248 4.31296 102.089 4.21265 99.9796 4.31296C97.1675 4.41326 94.3052 4.71416 91.4932 4.66401C87.4759 4.61386 83.4586 4.0622 79.4414 4.1625C70.1012 4.41326 60.7611 5.16552 51.3708 5.16552C41.2774 5.21567 31.184 4.51356 21.0907 4.36311C16.2699 4.31296 11.399 4.71416 6.5783 5.06522C6.02592 5.11537 5.07182 6.31899 5.12204 6.97095C5.17225 10.7824 5.72463 14.644 5.52377 18.4555C5.12204 26.931 4.16794 35.4065 3.81643 43.9321C3.61557 49.0976 4.16794 54.2632 4.46923 59.3786C4.6701 62.6885 5.22247 65.9985 5.17225 69.2583C5.17225 71.6154 4.26837 73.9725 4.11772 76.3797C3.61557 83.3005 3.86664 90.1712 4.46923 97.092C5.22247 106.019 4.97139 115.046 5.07182 124.073C5.12204 127.834 5.02161 127.834 8.93844 127.834C9.84232 127.834 10.7462 128.035 11.7003 128.085C16.7721 128.286 21.8941 128.737 26.9659 128.637C34.2974 128.537 41.6791 127.684 49.0106 127.734C59.6061 127.834 70.2017 128.537 80.8474 128.737C86.3712 128.837 91.8447 128.336 97.3684 128.286C99.829 128.286 102.34 128.787 104.8 128.988C108.416 129.239 112.082 129.439 115.697 129.69C116.953 129.79 118.158 130.141 119.413 130.141C121.422 130.141 122.577 129.239 122.677 126.982C122.928 122.067 123.531 117.152 123.681 112.238C124.033 102.909 124.234 93.5814 124.435 84.2534C124.535 79.6896 124.485 75.1259 124.535 70.512C124.535 67.7538 124.585 65.0456 124.485 62.2873C124.435 60.3816 123.933 58.4758 123.983 56.5701C124.133 48.0946 124.485 39.6191 124.736 31.0935Z" fill="#6EBEC7"/>
<path d="M99.4271 37.3121C99.3769 40.0203 97.9709 41.8257 96.0627 41.7254C94.3553 41.6251 93.2004 39.92 93.2506 37.6632C93.351 35.2058 95.0082 32.949 96.6653 33.1998C98.925 33.601 99.5276 35.3061 99.4271 37.3121Z" fill="#6EBEC7"/>
<path d="M35.0003 38.5661C35.0003 41.2742 33.745 43.2301 32.1883 43.18C30.6316 43.1298 29.4264 41.1739 29.4766 38.7667C29.4766 38.0144 29.4766 37.1117 29.8783 36.6102C30.5814 35.7576 31.5857 34.7546 32.5398 34.7045C33.1926 34.6543 34.0462 36.0084 34.6488 36.861C35.0003 37.4126 34.8999 38.1649 35.0003 38.5661Z" fill="#6EBEC7"/>
<path d="M64.7783 60.3314C65.0294 61.8359 65.3809 63.3405 65.4311 64.845C65.4311 65.5471 64.9792 66.4498 64.4268 66.851C64.0251 67.1018 62.7194 66.851 62.5186 66.4498C61.916 65.2462 61.4138 63.9423 61.3134 62.5882C61.213 61.3846 61.6147 60.1308 62.0666 58.9773C62.3679 58.1749 63.1714 57.5731 63.7238 56.9211C64.1757 57.7236 64.6779 58.4758 65.0796 59.2782C65.2302 59.529 65.0796 59.9302 65.0796 60.2812C64.9792 60.2812 64.8787 60.2812 64.7783 60.3314Z" fill="#6EBEC7"/>
</g>
<defs>
<clipPath id="clip0_233_1000">
<rect width="128" height="133" fill="white"/>
</clipPath>
</defs>
</svg>
