<svg width="128" height="133" viewBox="0 0 128 133" fill="none" xmlns="http://www.w3.org/2000/svg">
<g clip-path="url(#clip0_233_1097)">
<path d="M127.101 17.5537C127.251 28.076 127.401 38.5983 127.601 49.1206C127.7 54.8057 127.9 60.4907 128 66.2256C128 67.6219 127.7 69.0182 127.65 70.4146C127.601 75.6009 127.7 80.8372 127.601 86.0235C127.351 97.0445 127.001 108.065 126.602 119.086C126.452 122.577 125.952 126.018 125.653 129.459C125.503 131.504 124.354 132.8 122.407 132.9C119.61 133.1 116.863 133 114.066 132.9C111.37 132.85 108.673 132.651 105.976 132.501C103.928 132.401 101.831 132.302 99.7831 132.252C95.638 132.202 91.5428 132.202 87.3976 132.202C79.6068 132.202 71.766 132.352 63.9751 132.152C51.7894 131.853 39.6036 130.955 27.368 132.352C22.4737 132.9 17.4296 132.102 12.4854 131.903C10.0882 131.803 7.69103 131.653 5.29384 131.554C1.84788 131.404 1.1487 130.756 1.34846 127.415C1.59817 123.226 2.19747 118.987 2.14753 114.798C2.04764 108.863 1.94776 102.829 0.998872 96.9448C-0.399489 88.4671 0.24975 80.139 0.898989 71.7112C1.19864 67.6219 1.04881 63.4828 0.749165 59.3437C0.0499839 51.6141 -0.649197 43.8844 1.09876 36.1547C1.59817 33.9106 1.69805 31.5169 1.69805 29.223C1.64811 21.3936 1.49829 13.5642 1.29852 5.68492C1.24858 2.49332 1.3984 2.0445 4.69454 1.89489C14.533 1.34634 24.3715 0.398831 34.3098 1.44607C46.1959 2.74266 58.032 0.897518 69.9181 0.747912C77.5592 0.698043 85.2002 1.49594 92.7913 1.39621C100.033 1.34634 107.274 0.648174 114.516 0.199355C115.115 0.149487 115.665 -0.0001196 116.264 -0.0001196C125.353 -0.149726 125.952 0.747912 126.102 8.87652C126.152 11.7689 126.552 14.6613 126.851 17.5537C126.901 17.5537 127.001 17.5537 127.101 17.5537ZM5.99302 110.559C5.74331 116.144 5.49361 119.934 5.39372 123.774C5.29384 127.514 5.34378 127.514 9.18927 127.464C9.68869 127.464 10.1881 127.614 10.6875 127.614C16.1811 127.863 21.6746 128.462 27.1183 128.163C37.0566 127.614 46.995 127.066 56.9833 127.764C66.9216 128.462 76.9099 128.113 86.8483 128.163C90.2443 128.163 93.7901 127.265 97.0363 127.963C103.728 129.359 110.72 126.916 117.263 129.659C117.762 129.858 118.411 129.709 119.011 129.709C120.958 129.758 121.757 128.861 121.857 126.866C122.107 121.979 122.756 117.142 123.006 112.254C123.405 104.525 123.655 96.7453 123.805 88.9658C123.905 83.0812 123.805 77.2466 123.705 71.3621C123.655 67.3227 123.505 63.2833 123.405 59.244C123.355 57.6482 123.306 56.1022 123.355 54.5064C123.555 49.2204 124.105 43.9343 123.905 38.6482C123.455 28.076 122.556 17.5038 121.857 6.93164C121.657 3.93951 121.108 3.39096 118.062 3.54056C117.063 3.59043 116.114 3.93951 115.115 4.03925C112.019 4.33846 108.872 4.68754 105.776 4.88702C103.878 5.03663 101.981 4.93689 100.133 4.98676C97.0863 5.08649 93.9899 5.38571 90.9435 5.38571C79.407 5.43558 67.8705 5.43558 56.2841 5.43558C48.3434 5.43558 40.3528 5.43558 32.4121 5.48544C25.2704 5.53531 18.1787 5.48544 11.0371 5.88439C9.23922 5.98413 6.34261 4.08912 5.49361 7.18098C4.94425 9.17573 5.54355 11.4697 5.49361 13.6141C5.34378 21.2938 5.64343 28.9238 4.89431 36.5038C4.0453 45.0314 3.69571 53.4093 5.39372 61.887C6.0929 65.2781 5.44366 68.9684 5.19396 72.5091C4.84437 77.4461 3.74565 82.3831 3.94542 87.3201C4.29501 95.6482 5.39372 103.926 5.99302 110.559Z" fill="#6EBEC7"/>
<path d="M92.0421 30.3202C95.2883 30.3701 100.632 34.21 101.631 37.252C101.931 38.1995 102.58 39.0473 102.68 39.9948C102.73 40.8425 102.48 42.1391 101.931 42.4383C101.331 42.7376 100.133 42.2887 99.3835 41.8898C98.934 41.6405 98.5844 40.7927 98.4846 40.1943C98.135 37.9003 96.5868 36.6536 94.739 35.5565C91.9422 33.9108 90.1443 34.0604 88.0468 36.5538C87.1978 37.5512 86.6984 38.8478 85.7495 39.7454C85.1002 40.3937 84.0015 40.5433 83.1026 40.8924C82.753 39.9948 81.854 38.8478 82.1038 38.1995C83.5021 34.7087 87.048 30.2704 92.0421 30.3202Z" fill="#6EBEC7"/>
<path d="M32.9114 28.874C38.4549 28.9239 43.1494 32.5145 43.8986 37.1522C44.0484 38 43.1494 39.0473 42.7499 39.9948C41.851 39.4462 40.7522 39.0473 40.1529 38.2992C39.2041 37.1523 38.8045 35.3071 37.6559 34.5591C33.311 31.8163 31.1135 32.4147 28.0671 36.6037C27.2181 37.8005 26.5189 39.9449 24.5213 38.5984C22.6235 37.3019 23.922 35.6063 24.8209 34.2599C26.9684 31.2179 29.3156 28.6247 32.9114 28.874Z" fill="#6EBEC7"/>
<path d="M91.1432 48.0736C90.444 49.4699 89.9446 50.8663 89.0955 52.0132C88.4963 52.8111 87.4475 53.26 86.5985 53.9082C86.0991 52.9109 84.9504 51.6143 85.2501 50.966C86.3488 48.7219 87.6472 46.4279 89.3952 44.6825C90.0944 43.9844 92.5415 44.2836 93.6402 44.9817C96.7366 46.9266 98.085 50.0684 98.1849 53.6589C98.1849 54.4568 97.1861 55.2547 96.5868 56.0027C95.8376 55.3544 94.7389 54.8558 94.4892 54.0579C93.84 51.9135 93.5903 49.6694 91.1432 48.0736Z" fill="#6EBEC7"/>
<path d="M33.8604 43.7847C37.8057 43.7349 41.2018 47.0761 41.1019 51.0656C41.1019 51.8136 40.3528 52.9107 39.7535 53.1102C39.1542 53.2598 38.1054 52.6115 37.606 52.0629C37.0566 51.4147 37.1066 50.2178 36.5572 49.6194C35.8081 48.7716 34.7094 47.8241 33.7105 47.8241C32.9115 47.8241 31.7628 48.9212 31.3134 49.769C30.6641 51.0656 30.2646 52.8608 28.5166 51.8635C27.7675 51.4645 27.4679 49.37 27.7176 48.2729C28.3668 45.3307 30.7141 43.8346 33.8604 43.7847Z" fill="#6EBEC7"/>
<path d="M58.1818 70.6142C58.4814 72.2598 57.0831 75.1023 60.0796 76.7979C60.1794 76.8478 59.73 78.2441 59.2805 78.7428C58.2817 79.79 57.0331 80.2388 55.7846 79.0919C55.3351 78.6929 54.8856 77.9947 54.8357 77.3963C54.6359 73.706 54.4861 70.0157 54.586 66.3254C54.586 65.6273 55.8345 64.9291 56.5337 64.231C57.0831 65.0787 57.8322 65.8766 58.1318 66.8241C58.4315 67.8215 58.1818 68.8688 58.1818 70.6142Z" fill="#6EBEC7"/>
<path d="M63.6767 108.003C56.342 108.003 49.8376 106.912 45.1323 99.7754C44.5787 98.9358 43.264 98.9358 42.4337 98.1801C41.7417 97.5924 40.773 96.333 40.9806 95.8292C41.2574 94.9057 42.4337 93.5623 42.9181 93.6463C44.8555 94.234 47.0006 94.8217 48.3845 96.333C56.5495 105.485 69.5583 105.653 77.6541 96.333C79.5916 94.15 81.1139 91.4633 83.0514 89.3643C83.9509 88.3568 85.4732 88.2728 86.7187 87.769C86.7187 89.3643 87.2031 91.5473 86.5803 92.5548C80.6987 101.958 73.9868 109.599 63.6767 108.003Z" fill="#6EBEC7"/>
</g>
<defs>
<clipPath id="clip0_233_1097">
<rect width="128" height="133" fill="white"/>
</clipPath>
</defs>
</svg>
