<svg width="318" height="144" viewBox="0 0 318 144" fill="none" xmlns="http://www.w3.org/2000/svg">
<g clip-path="url(#clip0_1_10934)">
<path d="M1.87357 98.2169L40.047 122.003L61.254 127.491L68.3214 134.408H78.2063H90.5576L94.2621 140.405H102.292L122.674 144H147.993L151.831 142.54H158.983L160.639 144H174.826L178.663 142.208H184.028H187.348L197.57 141.879L207.284 139.564L216.225 139.398L221.845 139.73L228.491 139.893L230.279 137.744H234.116H240.5L243.057 137.578L248.426 136.751L255.579 135.1L265.032 131.958V129.643H269.377L271.678 127.989L275.259 126.169L280.623 123.193L282.924 121.11L286.244 119.885V118.069L288.545 117.736L292.377 115.093L296.722 112.778L302.086 109.304L305.411 105.667L308.732 103.85L311.032 103.352L313.589 101.535L316.397 98.2169V93.0784V87.2097L318 81.912V77.3825V73.0952V57.7419V45.7208L314.419 41.4474H309.462L306.161 36.6376L293.364 26.755H289.232L287.169 23.8172L284.902 22.9279L282.625 21.1874L277.241 17.7028L271.241 15.1595H266.066L262.343 14.0868L257.168 10.4708L252.406 9.13171L246.61 8.46387L241.022 6.85484H237.503H232.745L230.051 6.05205L223.842 4.57796H220.47H216.282L211.496 2.90318L205.216 0.968881H197.736L187.571 0H178.597H173.512H167.232H153.771H122.072L117.883 0.775105L114.293 2.32186H108.909L104.422 2.51563H100.836L96.9468 3.29074L91.862 3.67829L88.5702 4.64371L84.0831 5.80637H79.302H72.1207L63.5023 10.7961L56.7005 14.0246H51.2553L45.8148 15.1976L40.8249 18.426L30.8452 24.5888L22.6774 27.8173L13.6083 36.6203L5.89583 39.8522L1.87357 44.2537V78.0053V89.452L0 92.3863L1.87357 98.2169Z" fill="white"/>
<path d="M140.704 36C139.957 34.3467 139.211 32.3933 138.464 30.14C137.731 27.8733 137.111 25.7 136.604 23.62L138.884 23.48C139.284 25.24 139.777 27.1067 140.364 29.08C140.964 31.04 141.511 32.6467 142.004 33.9H142.204C142.711 32.6467 143.257 31.0467 143.844 29.1C144.431 27.14 144.931 25.2667 145.344 23.48L147.624 23.62C147.104 25.7267 146.477 27.9067 145.744 30.16C145.011 32.4 144.277 34.3467 143.544 36H140.704ZM154.098 36.16C152.378 36.16 151.078 35.6467 150.198 34.62C149.331 33.58 148.898 32.0533 148.898 30.04C148.898 27.8133 149.351 26.16 150.258 25.08C151.164 23.9867 152.584 23.44 154.518 23.44C157.998 23.44 159.738 25.4867 159.738 29.58C159.738 31.7933 159.278 33.4467 158.358 34.54C157.451 35.62 156.031 36.16 154.098 36.16ZM154.438 34.14C155.384 34.14 156.151 34.02 156.738 33.78C157.271 32.5667 157.538 31.28 157.538 29.92C157.538 28.88 157.438 28.04 157.238 27.4C157.038 26.76 156.691 26.28 156.198 25.96C155.718 25.64 155.044 25.48 154.178 25.48C153.191 25.48 152.404 25.6 151.818 25.84C151.324 26.96 151.078 28.2467 151.078 29.7C151.078 30.74 151.178 31.5867 151.378 32.24C151.591 32.88 151.938 33.36 152.418 33.68C152.911 33.9867 153.584 34.14 154.438 34.14ZM162.111 23.64H164.311V33.96H169.771V36H162.111V23.64ZM171.584 33.68H173.944V36H171.584V33.68ZM179.099 26.34L178.919 26.22L176.699 27L176.099 25.58L179.319 23.84C179.546 23.84 179.812 23.9133 180.119 24.06C180.439 24.2067 180.712 24.38 180.939 24.58C181.179 24.7667 181.299 24.9267 181.299 25.06V36H179.099V26.34Z" fill="#A777B1"/>
</g>
<defs>
<clipPath id="clip0_1_10934">
<rect width="318" height="144" fill="white"/>
</clipPath>
</defs>
</svg>
