<svg width="428" height="921" viewBox="0 0 428 921" fill="none" xmlns="http://www.w3.org/2000/svg">
<g clip-path="url(#clip0_175_2910)">
<rect width="428" height="921" fill="#D2EEF2"/>
<path d="M0 675H10.464V688.22H25.0446L34.3132 703.848H50.2127L53.7479 714.664H66.9987H83.781L92.4029 724.279H101.45H111.165V732.441H115.605V737.815H122.32H131.011H143.651V743.727H151.158L167.747 735.125H174.869L180.159 737.815L193.028 738.352H196.981L209.622 743.727L218 739.963L229.372 739.426H244.778L259.751 740.224L266.563 741.272L275.494 743.093L281.514 743.727L296.527 742.116L330.499 729.751L347.881 731.904L356.964 732.441V740.019H369.129L378.597 739.503V733.32H394.882L406.243 723.527L414.574 723.015V718.377H418.36L420.635 713.739L426.314 714.772L429.722 713.739V708.072L436 707.556V931.5H218H0V675Z" fill="#ADE1EE"/>
<path d="M-11.8862 820.908L-1.55007 819.278L0.271139 830.821L14.6736 828.549L25.982 840.752L41.6872 838.274L46.6693 847.168L59.7582 845.103L76.3356 842.487L86.1766 849.539L95.1131 848.129L104.71 846.615L105.834 853.742L110.22 853.051L110.961 857.744L117.593 856.698L126.178 855.343L138.664 853.373L139.478 858.536L146.893 857.366L162.095 847.269L169.129 846.159L174.725 847.684L187.511 846.147L191.416 845.531L204.642 848.255L212.4 843.662L223.559 841.421L238.777 839.021L253.676 837.384L260.55 837.238L269.623 837.436L275.657 837.051L290.264 833.305L322.118 817.213L339.584 816.384L348.63 815.437L349.674 822.055L361.69 820.16L370.971 818.233L370.12 812.834L386.205 810.296L401 810.296L409.159 808.552L408.52 804.501L412.26 803.911L413.867 799.506L419.619 799.523L422.843 798.09L422.063 793.142L428.193 791.713L454.124 976.943L238.787 1010.92L23.4505 1044.89L-11.8862 820.908Z" fill="#ADDBE7"/>
<path d="M45.0306 875.558L-8.38917 851.108L-8.38935 942.915L433.973 942.914L433.973 887.115L416.104 898.468L389.67 901.471L343.967 886.979L312.803 884.144L285.348 881.646L248.342 894.053L215.367 902.62L185.687 899.92L157.368 885.777L113.291 888.227L65.0649 877.381L45.0306 875.558Z" fill="#C4E6EF"/>
<g clip-path="url(#clip1_175_2910)">
<path d="M237 44.301H349.893L355.753 47.1403L349.893 50.6902L355.753 56.0225H367.402L374.583 60.6292L367.402 64.8114L336.152 68.0873L333.71 69.8306V72.3808L339.713 73.9104L354.387 75.6988L390.958 72.5494L398.487 74.5908H402.744L435.991 75.6988" stroke="white" stroke-width="2" stroke-miterlimit="10"/>
</g>
<g clip-path="url(#clip2_175_2910)">
<path d="M-40.125 33.893L-57.9585 35.1759L-60.1866 52.3485L-82.2061 64.7657L-95.7023 60.092L-115.472 64.022L-124.642 67.7477L-139.629 86.1368L-158.174 86.386L-158.115 99.8642L-141.219 102.823L-129.099 109.546L-107.085 109.251L-102.566 127.589L-94.2547 127.982L-69.9191 127.662L-63.5084 136.218L-45.2479 136.925L-27.8799 135.675L-19.9023 132.641L-5.84198 134.09L10.6103 139.778L28.719 138.475L40.188 130.779L53.9251 118.95L62.915 111.746L74.1527 110.938L90.029 114.387L89.4234 103.935L98.5648 99.3471L115.198 94.212L133.057 99.4916L148.448 94.4458L147.729 82.037L123.595 76.7921L123.241 70.6778L122.219 53.0472L90.3025 43.3151L78.437 44.1687L74.4544 51.2318L52.4639 39.7008L46.7499 27.6435L27.9538 19.1609L3.0941 20.9492L-0.62927 32.3647L-19.161 26.4888L-32.3509 26.1248L-40.3364 26.6993L-40.125 33.893Z" fill="white"/>
</g>
<g clip-path="url(#clip3_175_2910)">
<path d="M378.542 94.1793H369.788L368.213 103.139L357.098 108.844L350.634 105.871L340.859 107.192L336.271 108.806L328.425 117.923L319.353 117.352L319 124.452L327.175 126.65L332.909 130.65L343.677 131.329L345.367 141.158L349.418 141.679L361.322 142.433L364.214 147.181L373.119 148.245H381.644L385.629 146.95L392.461 148.245L400.342 151.864H409.23L415.054 148.245L422.104 142.536L426.702 139.083H432.218L439.88 141.501V135.974L444.478 133.904L452.754 131.83L461.334 135.287L469 133.213V126.65L457.352 122.974V119.741V110.417L442.027 104.083H436.203L434.056 107.651L423.634 100.746L421.183 94.1793L412.235 89H400.033L397.89 94.8707L388.998 91.0742L382.562 90.3828H378.642L378.542 94.1793Z" fill="white"/>
</g>
<g clip-path="url(#clip4_175_2910)">
<path opacity="0.78" d="M444 921V526L-8.00006 526V921H444Z" fill="url(#paint0_linear_175_2910)"/>
</g>
</g>
<defs>
<linearGradient id="paint0_linear_175_2910" x1="217.996" y1="526" x2="217.996" y2="921.041" gradientUnits="userSpaceOnUse">
<stop stop-color="#FCF5E6" stop-opacity="0"/>
<stop offset="1" stop-color="#FCF5E6"/>
</linearGradient>
<clipPath id="clip0_175_2910">
<rect width="428" height="921" fill="white"/>
</clipPath>
<clipPath id="clip1_175_2910">
<rect width="210" height="39" fill="white" transform="translate(226 37)"/>
</clipPath>
<clipPath id="clip2_175_2910">
<rect width="306.393" height="119.073" fill="white" transform="matrix(0.997422 -0.071752 0.0578502 0.998325 -162 32.8257)"/>
</clipPath>
<clipPath id="clip3_175_2910">
<rect width="150" height="62.8639" fill="white" transform="translate(319 89)"/>
</clipPath>
<clipPath id="clip4_175_2910">
<rect width="452" height="395" fill="white" transform="translate(-8 526)"/>
</clipPath>
</defs>
</svg>
