<svg width="48" height="48" viewBox="0 0 48 48" fill="none" xmlns="http://www.w3.org/2000/svg">
<g clip-path="url(#clip0_175_1651)">
<path d="M39.0703 26.7635C39.0703 26.2939 39.0703 25.8431 39.01 25.3923C38.9856 25.0347 38.8824 24.6876 38.7085 24.3779C38.5705 24.1429 38.3874 23.9398 38.1706 23.7815C37.9537 23.6231 37.7077 23.5128 37.448 23.4575C36.655 23.2614 35.8288 23.2614 35.0358 23.4575C34.6991 23.5412 34.3838 23.6992 34.1111 23.9207C33.8385 24.1422 33.615 24.422 33.4557 24.7411C33.3291 24.9728 33.1964 25.2044 33.0879 25.4486C33.0323 25.5906 32.9488 25.719 32.8427 25.8255C32.7367 25.9321 32.6104 26.0145 32.4719 26.0676C32.3335 26.1206 32.1859 26.1431 32.0386 26.1335C31.8913 26.124 31.7475 26.0827 31.6165 26.0122C31.4283 25.9438 31.2672 25.8128 31.1581 25.6396C31.0491 25.4663 30.9982 25.2605 31.0134 25.0542C31.0463 24.2947 31.3443 23.5736 31.8517 23.0255C32.5373 22.236 33.4407 21.685 34.4387 21.4476C35.6968 21.1157 37.0163 21.1286 38.2682 21.4852C38.425 21.5353 38.5757 21.5916 38.7325 21.6543C38.8893 21.7169 38.8471 21.6543 38.8893 21.5916C39.1435 21.0684 39.4684 20.5856 39.8542 20.1578C40.1631 19.788 40.5522 19.4998 40.9895 19.3169C41.4267 19.134 41.8995 19.0617 42.369 19.1059C42.6303 19.1227 42.8802 19.2225 43.0852 19.3915C43.2901 19.5606 43.44 19.7909 43.5148 20.0513C43.5833 20.3295 43.5612 20.6234 43.4521 20.8872C43.3431 21.1511 43.1531 21.3701 42.9118 21.5102C42.6935 21.6388 42.4449 21.7017 42.1941 21.6918C41.5377 21.6686 40.8842 21.7903 40.2764 22.0487L39.8301 22.2553L40.0593 22.4745C40.7245 23.1027 41.161 23.9495 41.2955 24.8726C41.3614 25.2866 41.3957 25.7053 41.3981 26.1249C41.3981 27.6526 41.3981 29.1867 41.3981 30.7144C41.3631 31.2002 41.5076 31.6815 41.8022 32.0606C41.8987 32.1733 42.0012 32.286 42.0856 32.405C42.206 32.5878 42.2748 32.8019 42.2844 33.0231C42.294 33.2444 42.244 33.464 42.1398 33.6573C42.0575 33.7878 41.9482 33.8976 41.8199 33.9788C41.6916 34.06 41.5475 34.1106 41.3981 34.1269C41.0919 34.1937 40.7743 34.1768 40.4762 34.0781C40.1781 33.9793 39.9098 33.802 39.6975 33.5634C39.4729 33.2931 39.3137 32.9711 39.2331 32.6242C39.1239 32.1952 39.0712 31.7529 39.0763 31.3093V29.0364C39.0763 28.8298 39.0763 28.8235 38.8893 28.7797C37.9252 28.5454 36.9364 28.4381 35.9464 28.4604C35.3222 28.4534 34.7043 28.5903 34.1372 28.8611C33.7262 29.0738 33.4067 29.4385 33.2415 29.8834C33.0764 30.3284 33.0775 30.8213 33.2447 31.2654C33.3257 31.5031 33.4713 31.7112 33.664 31.8646C33.8567 32.018 34.0882 32.11 34.3302 32.1295C35.0204 32.2229 35.7218 32.1077 36.3505 31.7977C36.5558 31.7007 36.7728 31.6333 36.9957 31.5973C37.1099 31.5905 37.2242 31.6078 37.3318 31.6479C37.4394 31.6881 37.5381 31.7503 37.622 31.831C37.7058 31.9117 37.7732 32.0091 37.82 32.1174C37.8668 32.2257 37.892 32.3427 37.8943 32.4614C37.914 32.7073 37.8632 32.9538 37.7484 33.17C37.6336 33.3861 37.4599 33.5622 37.249 33.6761C36.7512 33.9952 36.1863 34.1843 35.6027 34.2271C34.9076 34.3305 34.2 34.2987 33.5161 34.1331C32.6363 33.9372 31.863 33.3968 31.3571 32.6242C31.084 32.2001 30.9105 31.7154 30.8506 31.2091C30.7393 30.4451 30.8289 29.6642 31.1098 28.9487C31.4118 28.2116 31.9454 27.6025 32.6235 27.2206C33.3337 26.8206 34.1121 26.5675 34.9152 26.4755C35.6758 26.3722 36.4462 26.3722 37.2068 26.4755C37.7798 26.5506 38.3466 26.6571 38.9195 26.751L39.0703 26.7635Z" fill="black"/>
<path d="M13.5849 22.2178C13.7779 22.437 13.9528 22.6311 14.1217 22.844C14.5223 23.3299 14.8074 23.9069 14.9539 24.5283C15.0815 25.0732 15.1403 25.6331 15.1288 26.1938V30.7583C15.1182 31.0263 15.1622 31.2937 15.2578 31.5429C15.3534 31.7921 15.4984 32.0176 15.6836 32.2047C15.8487 32.3798 15.959 32.6027 15.9999 32.8441C16.0408 33.0855 16.0104 33.334 15.9127 33.5572C15.8463 33.6919 15.7508 33.809 15.6336 33.8991C15.5165 33.9892 15.3808 34.0501 15.2373 34.0768C14.9092 34.1718 14.562 34.1688 14.2356 34.068C13.9091 33.9672 13.6167 33.7728 13.3919 33.5071C13.1487 33.1976 12.9848 32.8293 12.9155 32.4364C12.8296 31.9828 12.7912 31.521 12.8009 31.0589C12.8009 30.3639 12.8009 29.6688 12.8009 28.9738C12.8009 28.8611 12.7708 28.811 12.6622 28.786C11.6733 28.5525 10.6609 28.4432 9.64691 28.4604C9.06661 28.4597 8.49219 28.5811 7.95834 28.8173C7.73848 28.9113 7.53861 29.0494 7.37019 29.2237C7.20177 29.398 7.06808 29.605 6.97679 29.833C6.88549 30.0609 6.83838 30.3053 6.83813 30.5522C6.83788 30.7991 6.88451 31.0436 6.97535 31.2718C7.06104 31.5123 7.21202 31.7219 7.41002 31.8752C7.60801 32.0286 7.84455 32.1191 8.09104 32.1358C8.77199 32.2284 9.46412 32.1108 10.0811 31.7977C10.2554 31.7176 10.4373 31.6567 10.6239 31.6161C10.7433 31.5925 10.8663 31.5961 10.9843 31.6267C11.1022 31.6573 11.2124 31.7142 11.307 31.7934C11.4017 31.8727 11.4786 31.9723 11.5325 32.0855C11.5863 32.1987 11.6158 32.3227 11.6189 32.4489C11.6441 32.7036 11.5934 32.9603 11.4737 33.1842C11.354 33.4081 11.1711 33.5885 10.9495 33.7012C10.4878 33.9935 9.96818 34.1734 9.42982 34.2271C8.68867 34.3411 7.93338 34.3071 7.20452 34.1269C6.70798 34.0131 6.2423 33.7853 5.84159 33.4603C5.44088 33.1352 5.11532 32.7212 4.88878 32.2485C4.60722 31.6281 4.49457 30.9395 4.5631 30.2574C4.59952 29.5509 4.8274 28.8694 5.22046 28.2913C5.54283 27.8477 5.95441 27.4824 6.42658 27.2207C7.17662 26.8135 7.99606 26.5626 8.83883 26.4818C9.81638 26.3731 10.8041 26.4153 11.7697 26.607L12.7708 26.7824C12.8211 26.1308 12.7682 25.4751 12.614 24.8413C12.5189 24.5268 12.3474 24.2429 12.1161 24.0171C11.8848 23.7912 11.6015 23.6309 11.2933 23.5515C10.4572 23.323 9.5784 23.323 8.74232 23.5515C8.44155 23.6193 8.15693 23.7489 7.90523 23.9328C7.65353 24.1167 7.43988 24.3511 7.27688 24.6222C7.10802 24.9102 6.95727 25.2483 6.80048 25.5176C6.6957 25.7434 6.51626 25.9226 6.29488 26.0226C6.0735 26.1226 5.8249 26.1367 5.59435 26.0623C5.41422 26.0365 5.24487 25.958 5.10606 25.8361C4.96725 25.7141 4.86471 25.5537 4.81038 25.3736C4.74101 25.1134 4.74101 24.8385 4.81038 24.5784C4.99482 23.7409 5.4583 22.998 6.11901 22.4808C7.15891 21.6601 8.43118 21.2198 9.73738 21.2285C10.3607 21.1979 10.9853 21.2526 11.5948 21.3913C11.8783 21.4602 12.1617 21.5541 12.4391 21.648C12.5356 21.6856 12.5838 21.648 12.6321 21.5729C12.9467 20.9218 13.3786 20.3395 13.9045 19.8573C14.1957 19.5834 14.5385 19.3752 14.9111 19.2459C15.2838 19.1165 15.6782 19.0689 16.0695 19.1059C16.2657 19.1161 16.4573 19.1713 16.6304 19.2677C16.8035 19.3641 16.9539 19.4992 17.0706 19.6632C17.2116 19.8783 17.2871 20.1324 17.2871 20.3926C17.2871 20.6528 17.2116 20.907 17.0706 21.1221C16.9432 21.3071 16.7734 21.4561 16.5764 21.5556C16.3795 21.6551 16.1617 21.702 15.9429 21.6919C15.4521 21.6786 14.9622 21.7419 14.4895 21.8797C14.1759 21.9736 13.8744 22.1176 13.5849 22.2178Z" fill="black"/>
<path d="M25.9115 26.7384C25.9115 26.369 25.9115 25.9995 25.9115 25.6301C25.9075 25.1923 25.7998 24.7622 25.5979 24.3779C25.4662 24.1492 25.2915 23.9505 25.0843 23.7934C24.8771 23.6364 24.6416 23.5242 24.3917 23.4637C23.8289 23.314 23.246 23.2632 22.667 23.3134C22.2523 23.3296 21.8438 23.4229 21.4609 23.5889C21.0115 23.8025 20.6381 24.1574 20.3934 24.6033C20.2306 24.885 20.0738 25.1668 19.9351 25.4611C19.837 25.7076 19.6518 25.9058 19.4175 26.0152C19.1832 26.1246 18.9175 26.137 18.6747 26.0496C18.4287 26.0124 18.2069 25.8756 18.0578 25.6691C17.9086 25.4626 17.8442 25.2033 17.8787 24.9476C17.9204 24.2772 18.1725 23.6394 18.5963 23.1318C19.2167 22.3593 20.0468 21.7986 20.9784 21.5227C22.4042 21.0626 23.9309 21.0626 25.3567 21.5227C25.4712 21.5602 25.6159 21.6479 25.7004 21.6103C25.7848 21.5728 25.827 21.3974 25.8873 21.2847C26.2345 20.6272 26.7162 20.0565 27.2985 19.613C27.5935 19.388 27.9297 19.228 28.2865 19.143C28.6433 19.0579 29.013 19.0495 29.373 19.1183C29.5464 19.1463 29.7119 19.2132 29.8578 19.3144C30.0038 19.4156 30.1267 19.5486 30.218 19.7042C30.3093 19.8598 30.3668 20.0343 30.3865 20.2153C30.4061 20.3964 30.3875 20.5797 30.3319 20.7525C30.2416 21.0295 30.0681 21.269 29.8369 21.4358C29.6056 21.6026 29.3289 21.6879 29.0474 21.6792C28.4312 21.6556 27.8165 21.7577 27.2382 21.9798C27.0392 22.0549 26.8462 22.1488 26.6351 22.2427C26.7919 22.393 26.9306 22.5182 27.0633 22.656C27.5975 23.2335 27.9526 23.9642 28.0825 24.7535C28.1537 25.129 28.1921 25.5104 28.1971 25.8931C28.1971 27.4522 28.1971 29.0238 28.1971 30.5641C28.1708 30.9351 28.233 31.3071 28.378 31.6473C28.5216 31.8909 28.685 32.1213 28.8664 32.336C28.9544 32.4494 29.0197 32.5798 29.0585 32.7197C29.0974 32.8595 29.109 33.006 29.0927 33.1505C29.0764 33.2951 29.0326 33.4348 28.9637 33.5616C28.8948 33.6884 28.8023 33.7996 28.6916 33.8889C28.5089 34.0078 28.3028 34.0827 28.0885 34.108C27.825 34.1527 27.5551 34.1348 27.2992 34.0556C27.0433 33.9764 26.808 33.8381 26.611 33.6509C26.3092 33.3487 26.0995 32.9612 26.0079 32.5364C25.9076 32.0997 25.861 31.6516 25.8692 31.2027V29.005C25.8692 28.8798 25.8692 28.8297 25.7185 28.7984C24.7845 28.5781 23.8298 28.4668 22.872 28.4665C22.2526 28.4584 21.6377 28.5776 21.0628 28.8172C20.6203 29.0113 20.2681 29.377 20.0812 29.8365C19.8943 30.296 19.8873 30.8131 20.0618 31.2779C20.1511 31.5215 20.3073 31.7325 20.5109 31.885C20.7145 32.0374 20.9568 32.1246 21.2076 32.1357C21.8878 32.223 22.578 32.1079 23.1977 31.8038C23.389 31.7089 23.5919 31.6415 23.8008 31.6035C23.9231 31.5935 24.0461 31.6107 24.1615 31.6541C24.2769 31.6974 24.382 31.7658 24.47 31.8547C24.5579 31.9436 24.6265 32.051 24.6713 32.1696C24.716 32.2882 24.7358 32.4154 24.7295 32.5427C24.7333 32.7782 24.6731 33.01 24.5558 33.2116C24.4384 33.4132 24.2687 33.5763 24.0661 33.6822C23.6081 33.9792 23.0899 34.1614 22.5524 34.2145C21.9173 34.3207 21.2698 34.3207 20.6347 34.2145C20.153 34.1385 19.6911 33.9624 19.2766 33.6967C18.8621 33.4309 18.5035 33.081 18.2224 32.6679C17.927 32.2072 17.7448 31.6783 17.6917 31.1276C17.6172 30.4961 17.6748 29.8554 17.8606 29.2492C18.1387 28.3595 18.7432 27.6194 19.5431 27.1892C20.2416 26.8161 20.9998 26.5785 21.7805 26.4879C22.9269 26.3457 24.0879 26.3985 25.2179 26.6445L25.8632 26.7634L25.9115 26.7384Z" fill="black"/>
<path d="M15.7258 13.8338C15.4541 13.5407 15.1384 13.2954 14.791 13.1075C14.4955 12.9509 14.188 12.8132 13.8804 12.6566C13.7587 12.6014 13.6434 12.5321 13.5367 12.45C13.5053 12.436 13.4798 12.411 13.4645 12.3794C13.4492 12.3477 13.4451 12.3115 13.4531 12.277C13.461 12.2426 13.4804 12.2122 13.5078 12.1911C13.5353 12.1701 13.5689 12.1598 13.603 12.162C13.8114 12.1192 14.0242 12.1045 14.2362 12.1182C14.9599 12.2058 15.6896 12.3123 16.4133 12.4187C16.7269 12.4688 17.0163 12.5439 17.354 12.6003C17.4134 12.6159 17.4756 12.6159 17.535 12.6003C18.7206 11.9834 19.98 11.5328 21.28 11.2604C21.6953 11.188 22.114 11.1378 22.5343 11.1101C22.6039 11.1082 22.6733 11.1188 22.7394 11.1414C22.7702 11.1446 22.7992 11.158 22.8222 11.1796C22.8451 11.2012 22.8608 11.2299 22.8668 11.2614C22.8729 11.293 22.8691 11.3257 22.8559 11.3548C22.8427 11.3839 22.8209 11.4079 22.7937 11.4232C22.6809 11.5094 22.5596 11.5829 22.4318 11.6423C21.877 11.9241 21.3041 12.1745 20.7613 12.4688C20.1903 12.7858 19.681 13.2105 19.2597 13.7211C19.2385 13.7462 19.2268 13.7785 19.2268 13.8119C19.2268 13.8453 19.2385 13.8775 19.2597 13.9027C19.706 14.8356 20.1583 15.7811 20.5925 16.7015C20.7432 17.0208 20.8397 17.3714 20.9603 17.7096C20.9662 17.7678 20.9662 17.8266 20.9603 17.8849C20.9603 18.1103 20.8337 18.2167 20.6347 18.1166C20.4669 18.022 20.3109 17.9064 20.1703 17.7722C19.706 17.3276 19.2597 16.8643 18.7954 16.4135C18.3147 15.9518 17.7773 15.5581 17.1972 15.2426C17.1555 15.2196 17.1089 15.2075 17.0616 15.2075C17.0143 15.2075 16.9676 15.2196 16.9259 15.2426C16.0451 15.5834 15.2101 16.04 14.4412 16.6013C13.7598 17.121 13.1145 17.6845 12.4451 18.223C12.1979 18.4171 11.9506 18.6175 11.6973 18.8053C11.6129 18.8679 11.4923 18.9431 11.3958 18.8554C11.2993 18.7677 11.3958 18.6362 11.4259 18.5486C11.6698 18.129 11.9356 17.7235 12.222 17.3339C13.0737 16.2784 14.0186 15.3078 15.0443 14.4349L15.7258 13.8338Z" fill="black"/>
<path d="M24.4762 15.1048C24.1686 15.1048 23.8731 15.1048 23.6078 15.1048C22.9559 15.1301 22.3167 15.2987 21.7322 15.5994C21.6471 15.64 21.5582 15.6715 21.4669 15.6933C21.4247 15.6933 21.3402 15.6933 21.3282 15.662C21.316 15.6379 21.3097 15.611 21.3097 15.5838C21.3097 15.5565 21.316 15.5297 21.3282 15.5055C21.482 15.3384 21.6495 15.1855 21.8287 15.0484C22.7716 14.36 23.8553 13.9078 24.9948 13.7273C25.2421 13.6897 25.4893 13.6897 25.7365 13.6647C25.7969 13.6631 25.8555 13.6436 25.9054 13.6083C26.6379 13.0583 27.4194 12.5823 28.2393 12.187C28.7224 11.9481 29.2302 11.7674 29.7529 11.6485C29.8487 11.6319 29.9454 11.6214 30.0425 11.6172C30.0847 11.6172 30.157 11.6172 30.1691 11.6735C30.1714 11.6973 30.1688 11.7213 30.1616 11.744C30.1543 11.7666 30.1424 11.7875 30.1268 11.805C30.0782 11.8691 30.0215 11.926 29.958 11.9741L28.7519 12.9008C28.3618 13.2004 28.0075 13.5472 27.6965 13.9339L27.6121 14.0654L28.0644 14.2407C29.013 14.6307 29.9122 15.1395 30.742 15.7559C31.3517 16.1901 31.8964 16.7155 32.3582 17.315C32.5177 17.5636 32.6647 17.8207 32.7984 18.0852C32.807 18.1243 32.807 18.165 32.7984 18.2041C32.7984 18.3419 32.7441 18.4108 32.6295 18.3419C32.4538 18.2323 32.2865 18.1088 32.129 17.9725C31.34 17.2884 30.4632 16.7215 29.5238 16.2882C28.6139 15.8939 27.6525 15.6428 26.6713 15.5431C26.5753 15.5361 26.4788 15.5492 26.3877 15.5815C26.2966 15.6137 26.2126 15.6645 26.1406 15.7309C25.4757 16.249 24.904 16.8849 24.4521 17.6093C24.1626 18.0476 23.8912 18.4984 23.6017 18.9367C23.5437 19.0011 23.4765 19.056 23.4027 19.0995C23.3631 19.0212 23.3366 18.9365 23.3243 18.8491C23.3294 18.3259 23.4107 17.8066 23.5655 17.3088C23.7535 16.5857 24.0312 15.8912 24.3917 15.2425L24.4762 15.1048Z" fill="black"/>
<path d="M5.54606 18.0914C5.53095 17.9729 5.53095 17.8529 5.54606 17.7345C5.60888 17.4503 5.68741 17.1702 5.78127 16.8955C6.20356 15.748 6.74551 14.652 7.39747 13.627C7.51205 13.4454 7.63265 13.2701 7.75929 13.0948C7.77726 13.0784 7.79165 13.0581 7.80151 13.0355C7.81137 13.0128 7.81649 12.9882 7.81649 12.9633C7.81649 12.9384 7.81137 12.9139 7.80151 12.8912C7.79165 12.8685 7.77726 12.8483 7.75929 12.8318C7.29297 12.3189 6.76139 11.8744 6.17927 11.5107C6.06057 11.4295 5.94771 11.3396 5.84156 11.2414C5.80538 11.2101 5.76921 11.135 5.78127 11.1037C5.7953 11.0818 5.81405 11.0636 5.83604 11.0506C5.85802 11.0375 5.88264 11.03 5.90792 11.0286C6.12983 11.0242 6.35169 11.0389 6.57128 11.0724C7.35526 11.2164 8.13925 11.3792 8.9172 11.542C8.98204 11.561 9.0505 11.5624 9.116 11.5459C9.18149 11.5295 9.2418 11.4958 9.29109 11.4481C10.2802 10.5877 11.3655 9.85399 12.5235 9.26286C12.7428 9.16156 12.9685 9.07579 13.1989 9.00614C13.2648 8.9947 13.3321 8.9947 13.3979 9.00614C13.3834 9.07444 13.3546 9.13857 13.3135 9.19398C12.9999 9.50705 12.7104 9.82012 12.3607 10.1144C11.6493 10.7714 11.0084 11.5061 10.449 12.3059C10.4152 12.3493 10.3968 12.4035 10.3968 12.4593C10.3968 12.5151 10.4152 12.5692 10.449 12.6127C10.7907 13.2639 11.1284 13.915 11.4621 14.5662C11.5827 14.8104 11.6732 15.0609 11.7817 15.3113C11.8015 15.3681 11.8156 15.4269 11.824 15.4866C11.824 15.6369 11.824 15.6933 11.6672 15.6307C11.4909 15.5501 11.3197 15.4581 11.1545 15.3552L9.79161 14.4848C9.62878 14.3847 9.44183 14.3033 9.26695 14.2156C9.23563 14.1912 9.19754 14.178 9.1584 14.178C9.11925 14.178 9.08117 14.1912 9.04985 14.2156C8.17871 14.8618 7.40444 15.6383 6.75219 16.5198C6.41447 16.9706 6.10088 17.4402 5.77523 17.9035C5.73011 17.9607 5.68179 18.0151 5.6305 18.0663L5.54606 18.0914Z" fill="black"/>
<path d="M23.077 39.9436H22.5524V38.6099C22.2448 38.6099 21.9493 38.6099 21.6599 38.6099C21.5272 38.6099 21.3583 38.6099 21.2799 38.6475C21.2015 38.685 21.2799 38.8979 21.2799 39.0294V39.906C21.2789 39.9185 21.2789 39.9311 21.2799 39.9436H20.7673C20.7643 39.8914 20.7643 39.8392 20.7673 39.787V36.8692C20.7673 36.7816 20.7673 36.7377 20.8819 36.744C20.9965 36.7503 21.1472 36.744 21.298 36.744V37.9963C21.298 38.0589 21.298 38.1215 21.3824 38.1215H22.5886V36.7503H23.1132L23.077 39.9436Z" fill="black"/>
<path d="M9.80969 36.7502H10.3102V37.6832C10.4454 37.5952 10.5889 37.5218 10.7384 37.464C10.8649 37.4142 11.0011 37.397 11.1354 37.4142C11.2697 37.4313 11.3979 37.4821 11.509 37.5623C11.62 37.6425 11.7106 37.7496 11.7728 37.8743C11.8351 37.999 11.8671 38.1376 11.8661 38.278V39.8496C11.8661 39.9122 11.8661 39.9561 11.7817 39.9561H11.3415V38.397C11.3564 38.3034 11.343 38.2074 11.303 38.1221C11.263 38.0368 11.1985 37.9666 11.1183 37.9211C11.0199 37.878 10.9122 37.8628 10.8062 37.8771C10.7002 37.8914 10.5998 37.9347 10.5153 38.0025C10.4471 38.0505 10.3923 38.1163 10.3564 38.1932C10.3204 38.2701 10.3045 38.3555 10.3102 38.4408C10.3102 38.9229 10.3102 39.4051 10.3102 39.8809C10.3102 39.8809 10.3102 39.9248 10.3102 39.9561H9.80969V36.7502Z" fill="black"/>
<path d="M40.0472 39.9435H39.5406V36.7502H40.0472V37.7082L40.198 37.5893C40.3808 37.4575 40.6031 37.3983 40.8245 37.4224C41.0459 37.4465 41.2516 37.5524 41.4041 37.7208C41.5011 37.8419 41.562 37.9899 41.579 38.1465C41.579 38.7727 41.579 39.3362 41.579 39.9435H41.0724V38.397C41.0877 38.3027 41.0738 38.2058 41.0326 38.1202C40.9914 38.0347 40.9251 37.9649 40.8432 37.9211C40.7465 37.8714 40.638 37.852 40.5309 37.8654C40.4238 37.8787 40.3228 37.9242 40.2401 37.9963C40.1708 38.0464 40.115 38.1142 40.078 38.1931C40.0411 38.272 40.0242 38.3595 40.0291 38.4471C40.0532 38.9355 40.0472 39.4364 40.0472 39.9435Z" fill="black"/>
<path d="M14.4351 38.2405H13.9889C13.983 38.1292 14.0022 38.0179 14.0452 37.9157C14.0881 37.8135 14.1535 37.7232 14.2362 37.6519C14.4298 37.5165 14.6544 37.4364 14.8874 37.4199C15.1203 37.4034 15.3533 37.4511 15.5629 37.558C15.6825 37.637 15.7797 37.7476 15.8444 37.8786C15.9091 38.0096 15.9389 38.1562 15.9308 38.3031C15.9308 38.8103 15.9308 39.3175 15.9308 39.8246C15.9308 39.9248 15.9308 39.9624 15.8101 39.9561H15.4965L15.4483 39.6431C15.3322 39.7969 15.173 39.9097 14.9926 39.9657C14.8123 40.0218 14.6196 40.0184 14.4412 39.9561C14.2727 39.9118 14.1254 39.8055 14.0267 39.657C13.928 39.5084 13.8845 39.3277 13.9045 39.1484C13.9193 38.9789 13.9941 38.8212 14.1144 38.7056C14.2347 38.59 14.3919 38.5247 14.5558 38.5223C14.803 38.5223 15.0443 38.5223 15.2915 38.5223C15.394 38.5223 15.4302 38.5223 15.4302 38.3845C15.4302 38.2468 15.4001 37.9901 15.195 37.9149C15.0971 37.8709 14.9897 37.8547 14.8837 37.8679C14.7778 37.8811 14.6771 37.9233 14.5919 37.9901C14.5288 38.0656 14.476 38.1499 14.4351 38.2405ZM15.388 38.8666C15.1468 38.8666 14.8995 38.8666 14.6583 38.8666C14.5911 38.873 14.5288 38.9056 14.484 38.958C14.4392 39.0103 14.4153 39.0784 14.4171 39.1484C14.4171 39.3488 14.4653 39.474 14.6161 39.5241C14.7208 39.5519 14.8304 39.5528 14.9356 39.5266C15.0407 39.5004 15.138 39.448 15.2191 39.3738C15.293 39.321 15.349 39.2455 15.3793 39.1579C15.4096 39.0702 15.4126 38.9749 15.388 38.8854V38.8666Z" fill="black"/>
<path d="M31.1822 39.9437H30.7541L30.7058 39.6369C30.5674 39.8252 30.3643 39.9508 30.1389 39.9876C29.9704 40.0208 29.7961 40.0003 29.6389 39.9288C29.4818 39.8573 29.3492 39.7381 29.2585 39.5868C29.1973 39.4782 29.1652 39.3546 29.1653 39.2288C29.1655 39.103 29.198 38.9795 29.2594 38.871C29.3209 38.7626 29.409 38.6731 29.5149 38.6118C29.6207 38.5505 29.7404 38.5197 29.8615 38.5224C30.1389 38.5224 30.4163 38.5224 30.6817 38.5224C30.7541 38.1843 30.6817 37.9338 30.4284 37.8963C30.359 37.8671 30.2845 37.8538 30.2097 37.8574C30.135 37.861 30.0619 37.8814 29.9954 37.9171C29.929 37.9527 29.8707 38.0029 29.8247 38.0642C29.7787 38.1255 29.746 38.1963 29.7289 38.2719H29.2826C29.2697 38.1321 29.2987 37.9914 29.3656 37.8693C29.4325 37.7471 29.5341 37.6494 29.6565 37.5895C29.8368 37.4981 30.0348 37.4507 30.2354 37.4507C30.4361 37.4507 30.634 37.4981 30.8143 37.5895C30.9279 37.6469 31.0239 37.7358 31.092 37.8462C31.1601 37.9567 31.1976 38.0845 31.2003 38.2156C31.1943 38.7791 31.1822 39.3552 31.1822 39.9437ZM30.6455 38.8605H30.0786C30.0041 38.8593 29.9302 38.8742 29.8615 38.9043C29.8029 38.9261 29.7528 38.9674 29.719 39.0217C29.6852 39.0761 29.6696 39.1404 29.6745 39.2049C29.6666 39.2691 29.678 39.3342 29.7072 39.3914C29.7363 39.4486 29.7818 39.495 29.8374 39.5242C29.9395 39.5614 30.0494 39.5694 30.1555 39.5474C30.2616 39.5254 30.36 39.4741 30.4404 39.399C30.5301 39.3485 30.5998 39.2669 30.6373 39.1684C30.6748 39.07 30.6777 38.961 30.6455 38.8605Z" fill="black"/>
<path d="M26.6954 39.1735C26.8341 39.1735 26.9547 39.1735 27.0814 39.1735C27.208 39.1735 27.1899 39.2236 27.1718 39.305C27.1567 39.4346 27.1077 39.5574 27.0301 39.66C26.9525 39.7627 26.8492 39.8413 26.7316 39.8873C26.4079 40.0189 26.0482 40.0189 25.7245 39.8873C25.5924 39.8344 25.4741 39.7503 25.3788 39.6416C25.2836 39.5329 25.214 39.4026 25.1757 39.2612C25.0852 38.9168 25.0852 38.5536 25.1757 38.2093C25.2399 37.9537 25.3934 37.732 25.6063 37.5874C25.8191 37.4427 26.0762 37.3854 26.3276 37.4266C26.4708 37.4341 26.6107 37.4746 26.7372 37.545C26.8636 37.6154 26.9735 37.714 27.0589 37.8337C27.1442 37.9535 27.2029 38.0914 27.2308 38.2375C27.2587 38.3837 27.255 38.5344 27.2201 38.6789C27.2201 38.7853 27.1658 38.8229 27.0512 38.8229C26.6231 38.8229 26.1949 38.8229 25.7667 38.8229C25.6461 38.8229 25.6159 38.8605 25.628 38.9857C25.6318 39.0824 25.6571 39.1768 25.7019 39.2617C25.7468 39.3465 25.81 39.4194 25.8865 39.4746C25.9631 39.5298 26.0509 39.5658 26.1431 39.5799C26.2353 39.5939 26.3294 39.5855 26.418 39.5555C26.4981 39.5321 26.5687 39.4821 26.6188 39.4131C26.669 39.3441 26.6959 39.2599 26.6954 39.1735ZM26.6954 38.4159C26.7102 38.3459 26.7093 38.2733 26.6929 38.2037C26.6765 38.1341 26.645 38.0694 26.6007 38.0144C26.5565 37.9594 26.5007 37.9156 26.4377 37.8865C26.3747 37.8573 26.306 37.8435 26.2371 37.8461C26.1598 37.8339 26.0809 37.8397 26.0061 37.8631C25.9313 37.8866 25.8625 37.9271 25.8047 37.9817C25.7469 38.0363 25.7016 38.1036 25.672 38.1788C25.6425 38.2539 25.6295 38.3349 25.634 38.4159H26.6954Z" fill="black"/>
<path d="M6.39642 37.2199H5.52197V36.7566H5.63656H7.67491C7.77743 36.7566 7.82566 36.7566 7.8136 36.8943C7.80755 37.0049 7.80755 37.1157 7.8136 37.2262H6.93312V39.9561H6.39642V37.2199Z" fill="black"/>
<path d="M37.4721 39.524V39.9248C37.1908 39.9959 36.8971 39.9959 36.6158 39.9248C36.3806 39.8621 36.2781 39.6868 36.272 39.3863V37.8648H35.9102V37.4828H36.1816C36.26 37.4828 36.2902 37.4453 36.3022 37.3701C36.3022 37.2011 36.3565 37.032 36.3806 36.8567H36.7846V37.4828C36.9535 37.4828 37.1163 37.4828 37.2731 37.4828C37.4299 37.4828 37.436 37.5204 37.4179 37.6394C37.3998 37.7583 37.4179 37.7771 37.4179 37.8585C37.243 37.8585 37.0861 37.8585 36.9233 37.8585C36.7605 37.8585 36.7846 37.8585 36.7846 38.0025C36.7846 38.4346 36.7846 38.8728 36.7846 39.3049C36.7846 39.5303 36.8329 39.5866 37.05 39.5741C37.2671 39.5616 37.3274 39.5428 37.4721 39.524Z" fill="black"/>
<path d="M16.6243 11.3982C16.6234 11.1684 16.7027 10.946 16.8474 10.7721C16.9023 10.6955 16.9749 10.6346 17.0586 10.5951C17.1422 10.5557 17.2342 10.5389 17.3258 10.5464C17.4174 10.5539 17.5057 10.5855 17.5824 10.6381C17.659 10.6907 17.7216 10.7626 17.7641 10.8472C17.8767 11.052 17.913 11.2925 17.8664 11.5232C17.8197 11.754 17.6932 11.959 17.5108 12.0995C17.4515 12.1411 17.3845 12.1694 17.3141 12.1828C17.2437 12.1962 17.1714 12.1943 17.1017 12.1772C17.032 12.1602 16.9665 12.1283 16.9092 12.0837C16.852 12.0391 16.8042 11.9826 16.769 11.9179C16.6963 11.7539 16.6358 11.5844 16.5881 11.4107L16.6243 11.3982Z" fill="black"/>
<path d="M33.4196 36.7502H33.9201V39.9498H33.4859C33.4701 39.9426 33.4562 39.9314 33.4457 39.9171C33.4351 39.9029 33.4283 39.8861 33.4257 39.8684C33.4196 39.7892 33.4196 39.7097 33.4257 39.6305V36.7502H33.4196Z" fill="black"/>
<path d="M8.33223 10.3462C8.32268 10.1929 8.35157 10.0396 8.41604 9.90136C8.48051 9.76309 8.57835 9.64453 8.70009 9.55722C8.75909 9.51227 8.8267 9.48096 8.89833 9.46539C8.96997 9.44982 9.04397 9.45036 9.11539 9.46697C9.18681 9.48358 9.254 9.51588 9.31239 9.56168C9.37078 9.60749 9.41902 9.66575 9.45391 9.73254C9.57039 9.93202 9.61381 10.1684 9.57615 10.3983C9.5385 10.6283 9.42232 10.8365 9.24889 10.9848C9.17381 11.046 9.08466 11.0858 8.99024 11.1002C8.89583 11.1147 8.79944 11.1034 8.71054 11.0673C8.62164 11.0313 8.54332 10.9718 8.48333 10.8948C8.42333 10.8177 8.38371 10.7257 8.36841 10.6279C8.365 10.5863 8.365 10.5444 8.36841 10.5027C8.35335 10.4513 8.34127 10.399 8.33223 10.3462Z" fill="black"/>
<path d="M26.2975 12.3811C26.2868 12.6143 26.1971 12.8361 26.0442 13.0072C25.9879 13.0775 25.9159 13.1324 25.8344 13.167C25.7529 13.2016 25.6644 13.2148 25.5768 13.2055C25.4892 13.1962 25.4052 13.1647 25.3321 13.1138C25.259 13.0628 25.1991 12.994 25.1577 12.9133C25.0598 12.7283 25.0211 12.5158 25.0471 12.3065C25.0731 12.0971 25.1625 11.9018 25.3024 11.7487C25.3714 11.6734 25.4588 11.6191 25.5553 11.5917C25.6518 11.5643 25.7537 11.5648 25.85 11.5932C25.9462 11.6216 26.0332 11.6767 26.1014 11.7527C26.1696 11.8286 26.2166 11.9225 26.2371 12.0242C26.2643 12.1417 26.2845 12.2609 26.2975 12.3811Z" fill="black"/>
<path d="M18.6566 39.9499H18.1621V37.7146H18.6566V39.9499Z" fill="black"/>
<path d="M18.6566 37.2825H18.1621V36.7502H18.6566V37.2825Z" fill="black"/>
</g>
<defs>
<clipPath id="clip0_175_1651">
<rect width="39" height="31" fill="white" transform="translate(4.54498 9)"/>
</clipPath>
</defs>
</svg>
