<svg width="48" height="48" viewBox="0 0 48 48" fill="none" xmlns="http://www.w3.org/2000/svg">
<g clip-path="url(#clip0_175_1629)">
<path d="M10.3646 21.6899C10.3724 18.9804 11.1921 16.334 12.7203 14.0847C14.2486 11.8355 16.4168 10.0844 18.9511 9.05256C21.4854 8.02072 24.2722 7.7544 26.9595 8.28725C29.6468 8.8201 32.1141 10.1282 34.0498 12.0464C35.9856 13.9646 37.303 16.4068 37.8356 19.0647C38.3682 21.7225 38.0923 24.4768 37.0425 26.9797C35.9928 29.4827 34.2163 31.6219 31.9375 33.1274C29.6586 34.6329 26.9797 35.437 24.2389 35.4383C22.4139 35.4392 20.6066 35.0839 18.9208 34.3929C17.2349 33.7019 15.7037 32.6887 14.4147 31.4115C13.1257 30.1342 12.1045 28.618 11.4095 26.9498C10.7145 25.2815 10.3594 23.4941 10.3646 21.6899ZM25.4219 9.99473L25.3825 9.91676C25.3037 9.91019 25.2246 9.91019 25.1459 9.91676C24.9644 9.93169 24.7842 9.95993 24.6069 10.0012C23.306 10.297 22.0865 10.8709 21.034 11.6824C19.9814 12.494 19.1214 13.5236 18.5143 14.6988C17.6195 16.3908 17.3057 18.3247 17.6204 20.2085C17.8111 21.5255 18.2961 22.784 19.0401 23.8925C19.5199 24.6267 19.9733 24.9386 21.1498 24.7762C21.4988 24.7307 21.8524 24.7307 22.2015 24.7762C22.5427 24.8134 22.8723 24.9208 23.1692 25.0913C23.466 25.2618 23.7235 25.4918 23.9253 25.7664C24.127 26.0411 24.2684 26.3544 24.3405 26.6862C24.4126 27.0181 24.4139 27.3612 24.3441 27.6935C24.1952 28.2301 23.8759 28.7052 23.4335 29.0491C22.991 29.393 22.4486 29.5874 21.886 29.6037C21.3031 29.6467 20.7222 29.4988 20.2328 29.1829C19.7434 28.8671 19.3727 28.4007 19.1781 27.8559C18.81 26.8813 18.3829 25.9067 17.936 24.9841C17.5548 24.1589 17.0421 23.3922 16.7134 22.5541C15.8994 20.4779 15.8001 18.1944 16.4309 16.0567C16.6198 15.1581 16.974 14.3014 17.4759 13.5293C18.3398 12.3364 19.3685 11.2692 20.532 10.3586C21.071 9.94275 21.6033 9.51392 22.1357 9.05911C22.208 9.00713 22.2869 8.89018 22.2737 8.8317C22.2606 8.77323 22.1357 8.69526 22.0503 8.66277C21.9727 8.64325 21.8913 8.64325 21.8136 8.66277C20.6019 8.92211 19.4365 9.36016 18.3565 9.96224C15.6733 11.4863 13.5995 13.8736 12.4809 16.726C11.8083 18.2556 11.4593 19.9051 11.4555 21.573C11.5253 23.3981 11.933 25.1951 12.6583 26.8748C13.6512 29.3705 15.4453 31.4751 17.7651 32.8654C19.137 33.709 20.7684 34.0408 22.3658 33.801C23.4442 33.673 24.472 33.2761 25.3526 32.6476C26.2333 32.019 26.9378 31.1796 27.4002 30.208C28.5043 27.8754 28.5767 25.5364 26.8087 23.4312C25.9578 22.4482 25.0561 21.5092 24.1074 20.6179C23.4758 20.0584 22.9634 19.3801 22.6 18.6226C22.2367 17.8651 22.0296 17.0437 21.9911 16.2062C21.9038 15.1882 22.1332 14.1681 22.6483 13.2824C23.309 12.2325 24.1043 11.2716 25.0144 10.4236C25.1721 10.3001 25.297 10.1637 25.4219 10.0272V9.99473ZM24.62 34.8081L24.6661 34.9445C25.059 34.9012 25.4494 34.8384 25.8359 34.7561C27.4471 34.3633 28.9466 33.613 30.2208 32.5621C31.495 31.5112 32.5104 30.1873 33.1901 28.6908C33.8697 27.1942 34.1958 25.5643 34.1434 23.9247C34.0911 22.285 33.6619 20.6787 32.8882 19.2275C32.3492 18.2334 31.8497 17.2263 31.3502 16.2192C31.1004 15.6994 30.9098 15.1536 30.6929 14.6338C30.5741 14.3845 30.4031 14.1629 30.1913 13.9837C29.9794 13.8045 29.7315 13.6718 29.4639 13.5943C28.9377 13.4192 28.3778 13.3658 27.8274 13.4383C27.4778 13.4906 27.1427 13.6134 26.843 13.7989C26.5434 13.9845 26.2854 14.2289 26.0852 14.517C25.8849 14.8051 25.7467 15.1308 25.6789 15.4739C25.6112 15.817 25.6154 16.1702 25.6914 16.5116C25.8619 17.1448 26.2625 17.6937 26.8166 18.0533C27.3707 18.4128 28.0395 18.5579 28.695 18.4608C29.0454 18.3664 29.4168 18.3827 29.7574 18.5074C30.098 18.632 30.3907 18.8588 30.5944 19.156C31.4751 20.6244 32.2834 22.1318 32.244 23.9185C32.2829 25.2056 32.0594 26.4871 31.5868 27.687C30.7943 29.6168 29.5188 31.316 27.88 32.625C27.0387 33.2747 26.1318 33.801 25.2511 34.3858L24.62 34.8081Z" fill="black"/>
<path d="M34.5181 35.3863C34.196 34.9965 34.196 34.9835 34.472 34.7366C34.7481 34.4897 35.0439 34.3987 35.3133 34.6586C35.4748 34.8484 35.6241 35.0481 35.7603 35.2564C35.9837 35.5228 36.2269 35.7762 36.4569 36.0361L36.5555 35.9646C36.5392 35.7908 36.5062 35.6189 36.4569 35.4513C36.3499 34.9507 36.1891 34.4627 35.9771 33.9959C35.7077 33.5801 36.2072 32.9303 36.7001 33.0148C36.8447 33.0148 36.9827 33.2097 37.0878 33.3397C37.193 33.4696 37.3508 33.7945 37.5151 33.9894C37.6794 34.1843 37.9883 34.4832 38.2052 34.7431C38.2515 34.7932 38.284 34.8543 38.2996 34.9205C38.3152 34.9866 38.3134 35.0556 38.2942 35.1208C38.2751 35.1861 38.2393 35.2453 38.1904 35.293C38.1414 35.3406 38.0809 35.375 38.0146 35.3928C37.9743 35.3989 37.9331 35.3955 37.8943 35.3831C37.8555 35.3707 37.8202 35.3496 37.7911 35.3214C37.4691 34.9705 37.1339 34.6067 36.8382 34.2493H36.7658C36.8249 34.5027 36.8775 34.7626 36.9433 35.0225C37.009 35.2824 37.0747 35.5033 37.1405 35.7372C37.2062 35.9711 37.1996 36.1075 36.9893 36.2245C36.9578 36.247 36.9291 36.2732 36.9039 36.3025C36.4438 36.7248 36.3452 36.7378 35.8851 36.3025C35.6293 36.0349 35.3922 35.7506 35.1753 35.4513C34.9453 35.2109 34.8664 35.1849 34.5181 35.3863Z" fill="black"/>
<path d="M27.1373 40.7661V39.668C26.9114 39.5467 26.7423 39.3429 26.6662 39.1002C26.5901 38.8574 26.6129 38.5949 26.7298 38.3685C26.8854 38.0959 27.1352 37.888 27.4334 37.783C27.7317 37.6779 28.0583 37.6828 28.3532 37.7968C28.6358 37.3679 28.7212 37.3225 29.1287 37.3614C29.0538 37.9096 29.117 38.4676 29.3127 38.9858C29.3719 39.3496 29.4968 39.7005 29.5888 40.0578C29.5888 40.1033 29.5888 40.1943 29.5427 40.2008C29.3777 40.2846 29.1959 40.3312 29.0104 40.3372C28.9118 40.3372 28.7935 40.1358 28.7607 40.0059C28.6342 39.5548 28.5333 39.0971 28.4584 38.6349C28.4504 38.5354 28.4059 38.4421 28.3333 38.3727C28.2607 38.3033 28.1649 38.2625 28.064 38.2581C27.9511 38.2279 27.8314 38.2343 27.7226 38.2764C27.6137 38.3185 27.5215 38.3941 27.4593 38.492C27.3963 38.5829 27.3626 38.6904 27.3626 38.8006C27.3626 38.9108 27.3963 39.0184 27.4593 39.1092C27.5579 39.2782 27.6762 39.1872 27.788 39.1092C27.8997 39.0313 28.1494 38.9923 28.2151 39.2392C28.2208 39.28 28.2173 39.3216 28.2048 39.3609C28.1923 39.4002 28.1711 39.4363 28.1428 39.4666C28.0416 39.5217 27.9582 39.604 27.9024 39.7041C27.8465 39.8041 27.8205 39.9178 27.8274 40.0319C27.8208 40.6426 27.7354 40.7206 27.1373 40.7661Z" fill="black"/>
<path d="M21.0972 40.071C20.8475 40.1944 20.578 40.3049 20.3348 40.4543C20.2827 40.4921 20.2227 40.5181 20.1593 40.5304C20.0958 40.5427 20.0304 40.5411 19.9677 40.5256C19.905 40.5101 19.8465 40.4811 19.7963 40.4407C19.7462 40.4003 19.7056 40.3495 19.6776 40.2919C19.598 40.1253 19.5568 39.9433 19.5568 39.7591C19.5568 39.5749 19.598 39.3929 19.6776 39.2263C19.7236 39.0899 19.7827 38.9664 19.8353 38.8365C19.915 38.6791 19.9456 38.5018 19.9234 38.3272C19.9012 38.1526 19.8271 37.9884 19.7105 37.8554C19.9554 37.796 20.2081 37.774 20.4597 37.7904C20.6635 37.8359 20.7752 38.2907 20.6832 38.5636C20.5912 38.8365 20.4861 38.9794 20.4072 39.2133C20.3283 39.4472 20.2889 39.6227 20.21 39.8631L21.3141 39.5447C21.3733 39.1678 21.4193 38.7585 21.5179 38.3687C21.5179 38.2127 21.7216 38.0893 21.8334 37.9463C21.97 38.0218 22.0777 38.1398 22.1395 38.282C22.2013 38.4242 22.2138 38.5826 22.1751 38.7325C22.116 38.9404 22.0897 39.1613 22.0503 39.3823C22.0066 39.4916 21.9958 39.611 22.0191 39.7263C22.0424 39.8415 22.0989 39.9477 22.1817 40.032C22.3789 40.2269 22.2211 40.4868 22.07 40.6817C22.0013 40.7858 21.8981 40.8628 21.7781 40.8996C21.6581 40.9364 21.5288 40.9306 21.4127 40.8831C21.306 40.8447 21.2181 40.7676 21.1668 40.6675C21.1155 40.5673 21.1048 40.4516 21.1367 40.3439C21.1404 40.2963 21.1404 40.2485 21.1367 40.2009L21.0972 40.071Z" fill="black"/>
<path d="M37.0222 32.3326L37.1733 32.0598C37.4625 31.5985 37.7057 31.5465 38.1657 31.8518L38.9873 32.4106L39.7826 31.9883C39.3554 31.6894 38.961 31.3386 38.5207 31.1241C38.4077 31.0746 38.3139 30.9903 38.2535 30.8837C38.1931 30.7771 38.1692 30.654 38.1855 30.5329C38.3047 30.4509 38.4481 30.4102 38.5931 30.4173C38.7382 30.4243 38.8768 30.4787 38.9873 30.5719C39.3685 30.8513 39.7628 31.1111 40.144 31.384C40.2609 31.4484 40.358 31.5427 40.4251 31.6571C40.4922 31.7714 40.5268 31.9016 40.5253 32.0338C40.5253 32.3716 40.4069 32.4626 40.0586 32.4951C39.8166 32.5316 39.5773 32.5837 39.3422 32.651C39.482 32.7439 39.608 32.8554 39.7168 32.9824C39.748 33.05 39.7635 33.1236 39.7623 33.1979C39.7611 33.2722 39.7431 33.3452 39.7098 33.4118C39.6764 33.4784 39.6285 33.5368 39.5694 33.5828C39.5104 33.6287 39.4418 33.6611 39.3685 33.6776C39.2789 33.7043 39.1843 33.7105 39.0919 33.6958C38.9995 33.6811 38.9117 33.6458 38.8351 33.5926C38.7585 33.5394 38.6951 33.4697 38.6498 33.3888C38.6044 33.3078 38.5782 33.2177 38.5732 33.1253C38.5646 33.0425 38.5247 32.966 38.4616 32.9109C38.3301 32.8005 38.1789 32.716 38.0475 32.612C37.8109 32.4236 37.5874 32.3651 37.3902 32.651L37.0222 32.3326Z" fill="black"/>
<path d="M31.2845 38.8559L31.9417 38.0567C31.7914 37.688 31.6203 37.3279 31.4291 36.9782C31.2976 36.7572 31.4291 36.6468 31.5211 36.5038C31.5211 36.4649 31.7511 36.4649 31.8365 36.5038C31.9694 36.5864 32.0817 36.6974 32.1652 36.8287C32.2773 37.0381 32.374 37.2552 32.4544 37.4784C32.5464 37.7059 32.6384 37.8813 32.9276 37.9398C33.2168 37.9982 33.2234 38.2906 33.2102 38.531C33.2102 38.652 33.1686 38.7694 33.0921 38.8638C33.0157 38.9583 32.909 39.0242 32.7896 39.0508C32.7356 39.0667 32.679 39.072 32.623 39.0663C32.567 39.0605 32.5128 39.0439 32.4633 39.0173C32.4138 38.9907 32.3701 38.9548 32.3348 38.9114C32.2994 38.8681 32.273 38.8183 32.2572 38.7649C32.2198 38.6932 32.1782 38.6238 32.1323 38.557C31.975 38.8009 31.8302 39.0524 31.6985 39.3107C31.681 39.3858 31.6439 39.455 31.5909 39.5116C31.5379 39.5681 31.4708 39.6099 31.3964 39.6329C31.322 39.6559 31.2428 39.6593 31.1666 39.6426C31.0905 39.626 31.0201 39.59 30.9624 39.5381C30.8003 39.4197 30.6643 39.27 30.5626 39.0979C30.4609 38.9259 30.3957 38.7352 30.3709 38.5375C30.3234 38.3173 30.2619 38.1003 30.1869 37.8878C30.149 37.8087 30.0953 37.738 30.0291 37.6799C29.9437 37.5824 29.6546 37.6279 29.832 37.3615C30.0095 37.0951 30.2001 36.9457 30.4892 37.0951C30.6481 37.202 30.7771 37.3467 30.8644 37.5159C30.9517 37.6851 30.9945 37.8734 30.9888 38.0632C31.0404 38.327 31.1084 38.5874 31.1925 38.8429L31.2845 38.8559Z" fill="black"/>
<path d="M22.8521 38.7065C22.9507 38.4985 22.977 38.2711 23.0953 38.2062C23.2694 38.1347 23.464 38.129 23.6421 38.1901C23.8203 38.2512 23.9695 38.3748 24.0614 38.5375C24.2914 38.4271 24.5215 38.3101 24.7581 38.2062C24.8424 38.1528 24.9399 38.1238 25.0399 38.1221C25.1399 38.1205 25.2384 38.1465 25.3244 38.197C25.4103 38.2476 25.4803 38.3208 25.5266 38.4085C25.5728 38.4962 25.5934 38.5948 25.5862 38.6935C25.5862 39.3432 25.5862 39.9539 25.5862 40.5777C25.5895 40.6504 25.5725 40.7225 25.5371 40.7863C25.5017 40.85 25.4492 40.9029 25.3854 40.9391C25.3216 40.9754 25.2489 40.9935 25.1754 40.9917C25.1018 40.9898 25.0302 40.968 24.9684 40.9285C24.9393 40.9007 24.9162 40.8674 24.9004 40.8306C24.8846 40.7937 24.8764 40.7541 24.8764 40.7141C24.8764 40.0644 24.8764 39.4796 24.8764 38.7649C24.5806 38.9144 24.3374 39.0313 24.1074 39.1743C24.0614 39.1743 24.0548 39.3172 24.0548 39.3887C24.0548 39.759 24.0548 40.1294 24.0548 40.4997C24.0548 40.8701 23.8906 41.0325 23.5094 40.9545C23.4633 40.9355 23.4229 40.9053 23.3919 40.8666C23.3609 40.828 23.3402 40.7823 23.3319 40.7336C23.3319 40.1813 23.3319 39.6226 23.3319 39.0638C23.3516 38.8234 23.207 38.7065 22.8521 38.7065Z" fill="black"/>
<path d="M14.3342 35.6138L14.6498 35.2434L15.0309 35.4253C15.1125 35.4604 15.185 35.5129 15.2434 35.5792C15.3018 35.6455 15.3445 35.7238 15.3685 35.8084C15.3924 35.8931 15.3969 35.9819 15.3817 36.0685C15.3665 36.1551 15.332 36.2372 15.2807 36.309C15.1711 36.4626 15.0502 36.6081 14.9192 36.7443C14.7954 36.8877 14.6792 37.0374 14.5709 37.1926C14.3343 37.5565 14.354 37.6214 14.7352 37.8423L15.1624 38.0762C15.4647 37.5435 15.7802 37.0367 16.0497 36.5039C16.0832 36.4232 16.1444 36.3569 16.2225 36.3165C16.3007 36.2761 16.3907 36.2642 16.4768 36.283C16.5557 36.283 16.6609 36.4519 16.674 36.5559C16.7029 36.6992 16.6821 36.848 16.6149 36.9782C16.3915 37.394 16.1482 37.7904 15.8985 38.1932C15.8463 38.2986 15.7714 38.3915 15.6791 38.4653C15.5868 38.5392 15.4793 38.5922 15.3641 38.6207C15.2489 38.6491 15.1288 38.6524 15.0123 38.6302C14.8957 38.6079 14.7854 38.5608 14.6892 38.4921L14.0648 38.1282C13.9848 38.0932 13.9126 38.0427 13.8525 37.9796C13.7925 37.9166 13.7458 37.8424 13.7152 37.7613C13.6846 37.6802 13.6707 37.5938 13.6743 37.5073C13.6779 37.4208 13.6989 37.3359 13.7362 37.2576C13.8948 36.927 14.1006 36.6207 14.3474 36.348C14.6826 35.9646 14.7023 35.9841 14.3342 35.6138Z" fill="black"/>
<path d="M10.1937 31.6114L9.72705 30.9617L8.75427 31.6114C8.57024 31.7349 8.38623 31.8648 8.19563 31.9753C8.13384 32.0196 8.0609 32.0462 7.98479 32.052C7.90867 32.0579 7.83233 32.0429 7.76432 32.0086C7.69631 31.9743 7.63924 31.9221 7.59937 31.8577C7.55949 31.7934 7.53838 31.7194 7.53839 31.6439C7.54219 31.608 7.5535 31.5733 7.57161 31.542C7.58971 31.5107 7.61423 31.4834 7.64357 31.462L9.1092 30.5198C9.18405 30.4697 9.2506 30.4083 9.30641 30.3379C9.34238 30.2843 9.39115 30.2403 9.44849 30.2099C9.50583 30.1795 9.56995 30.1636 9.63503 30.1636C9.7001 30.1636 9.76414 30.1795 9.82148 30.2099C9.87882 30.2403 9.92768 30.2843 9.96365 30.3379C10.2463 30.7083 10.5091 31.1046 10.7589 31.5009C10.7972 31.557 10.8231 31.6205 10.8349 31.6871C10.8468 31.7538 10.8442 31.8222 10.8275 31.8878C10.8107 31.9534 10.7802 32.0148 10.7378 32.068C10.6954 32.1211 10.6421 32.1648 10.5814 32.1962C10.0644 32.56 9.53858 32.9109 9.00402 33.2487C8.94116 33.2976 8.86518 33.3271 8.78548 33.3335C8.70578 33.34 8.62593 33.3231 8.55586 33.285C8.48579 33.2469 8.42856 33.1893 8.39139 33.1193C8.35422 33.0493 8.33871 32.97 8.34678 32.8914C8.35507 32.8572 8.37046 32.8252 8.39195 32.7972C8.41345 32.7692 8.44063 32.746 8.4717 32.7289C8.57686 32.651 8.70174 32.6055 8.8069 32.534L10.1937 31.6114Z" fill="black"/>
<path d="M32.6712 35.1915C32.641 35.236 32.602 35.274 32.5564 35.3032C32.5109 35.3323 32.4599 35.3521 32.4065 35.3612C32.353 35.3703 32.2982 35.3686 32.2455 35.3562C32.1927 35.3438 32.143 35.3209 32.0995 35.2889C31.9968 35.2181 31.9267 35.11 31.9046 34.9882C31.8824 34.8664 31.91 34.7409 31.9812 34.6392C32.0884 34.4615 32.2353 34.3106 32.4108 34.1979C32.5863 34.0853 32.7855 34.014 32.9933 33.9894C33.1383 33.9829 33.2814 34.0239 33.4003 34.1062C33.5192 34.1885 33.6071 34.3074 33.6505 34.4443C33.7065 34.6049 33.7245 34.776 33.7032 34.9446C33.6618 35.1236 33.6635 35.3097 33.708 35.4879C33.7525 35.6662 33.8387 35.8317 33.9595 35.9711C34.1718 36.2496 34.367 36.5404 34.5444 36.8418C34.6955 37.0952 34.8665 37.2576 35.1622 37.0432C35.4251 37.498 35.4251 37.5045 35.0768 37.7319C34.7284 37.9593 34.4589 37.9593 34.2421 37.654C33.8674 37.1082 33.4994 36.5624 33.1576 36.0036C33.0906 35.8388 33.0636 35.6608 33.0787 35.4838C33.0916 35.3151 33.0916 35.1457 33.0787 34.977C33.0705 34.9082 33.0474 34.8418 33.0112 34.7824C32.9749 34.723 32.9263 34.672 32.8685 34.6327C32.7896 34.5937 32.5924 34.7107 32.5267 34.8081C32.4609 34.9056 32.6318 34.99 32.6712 35.1915Z" fill="black"/>
<path d="M11.725 33.5215C11.6804 33.7637 11.6053 33.9995 11.5016 34.2233C11.3479 34.477 11.1446 34.6979 10.9035 34.873C10.7946 34.9459 10.6687 34.9903 10.5377 35.0019C10.4067 35.0135 10.2749 34.992 10.1546 34.9393C10.0343 34.8867 9.92953 34.8047 9.85013 34.701C9.77074 34.5974 9.71935 34.4754 9.70074 34.3467C9.70251 34.2968 9.71588 34.248 9.73982 34.2041C9.76375 34.1601 9.79759 34.1222 9.83874 34.0933C9.96361 34.0153 10.1148 33.9504 10.2265 34.1453C10.3382 34.3402 10.4829 34.3792 10.6866 34.1453C10.8444 33.9694 10.9638 33.7632 11.0373 33.5396C11.1108 33.316 11.1369 33.0798 11.1138 32.8458C11.1138 32.7354 11.1533 32.534 11.1993 32.5275C11.3699 32.471 11.5544 32.471 11.725 32.5275C12.0055 32.7588 12.259 33.0203 12.4809 33.3071C12.5313 33.4323 12.5313 33.5718 12.4809 33.697C12.4809 33.7295 12.2836 33.7684 12.1982 33.7425C12.0344 33.6824 11.8761 33.6085 11.725 33.5215Z" fill="black"/>
<path d="M17.2063 39.1547C17.5744 39.3041 17.7256 39.1547 17.8176 38.9013C17.9096 38.6479 18.0477 38.2516 18.1791 37.9527C18.2448 37.7967 18.1791 37.7123 18.0476 37.6668C17.822 37.6226 17.6017 37.5551 17.3904 37.4654C17.2655 37.4069 17.1801 37.264 17.0618 37.1405C17.1639 37.0355 17.2964 36.9641 17.4411 36.9362C17.5858 36.9083 17.7356 36.9252 17.8702 36.9846C18.0673 37.0755 18.2842 37.134 18.5274 37.212C18.6131 37.228 18.6938 37.2638 18.7627 37.3166C18.8317 37.3694 18.8869 37.4375 18.9241 37.5155C18.9613 37.5934 18.9793 37.679 18.9766 37.7652C18.9739 37.8513 18.9507 37.9356 18.9086 38.0111C18.7181 38.5374 18.5209 39.0572 18.3105 39.5705C18.2596 39.6653 18.1856 39.7461 18.0954 39.8057C18.0051 39.8653 17.9014 39.9019 17.7933 39.9122C17.6852 39.9225 17.5763 39.9062 17.4762 39.8647C17.376 39.8232 17.2878 39.7579 17.2195 39.6745C17.1472 39.5445 17.2063 39.3496 17.2063 39.1547Z" fill="black"/>
<path d="M26.3684 37.2381C26.091 37.4128 25.7985 37.5628 25.4943 37.6864C25.2129 37.7584 24.9239 37.7977 24.6332 37.8033C24.5423 37.8122 24.4508 37.7941 24.3703 37.7513C23.9957 37.6019 23.9826 37.3355 24.298 37.0496C24.5935 37.1511 24.9091 37.1816 25.2188 37.1386C25.5284 37.0957 25.8233 36.9806 26.0791 36.8027L26.3684 37.2381Z" fill="black"/>
<path d="M31.5737 34.8991C31.0939 35.4773 31.1136 35.6593 31.7511 36.0816C31.5342 36.1985 31.3436 36.3155 31.1399 36.4065C31.0939 36.4065 30.9953 36.3675 30.9361 36.3155C30.854 36.2531 30.7858 36.1746 30.7359 36.0849C30.6861 35.9952 30.6555 35.8963 30.6462 35.7943C30.637 35.6924 30.6493 35.5896 30.6822 35.4926C30.7151 35.3955 30.768 35.3063 30.8376 35.2304C31.015 35.029 31.1794 34.7366 31.5737 34.8991Z" fill="black"/>
<path d="M13.9728 35.0486C13.9728 35.3994 13.7427 35.4774 13.4469 35.4319C13.2815 35.4277 13.1192 35.3863 12.9723 35.3109C12.8254 35.2354 12.6978 35.128 12.5992 34.9966C12.5274 34.8579 12.5133 34.6971 12.5597 34.5483C12.5597 34.4768 12.7832 34.4508 12.9015 34.4248C12.9249 34.42 12.9492 34.4211 12.9721 34.4279C12.9951 34.4347 13.0159 34.447 13.0329 34.4638C13.2169 34.8666 13.6047 34.9316 13.9728 35.0486Z" fill="black"/>
<path d="M12.1194 35.4058C12.3034 35.8736 12.7109 35.971 13.1118 36.0555C13.1118 36.3739 12.8949 36.4973 12.6057 36.4323C12.3775 36.392 12.1562 36.3198 11.9485 36.2179C11.8418 36.1711 11.7534 36.0913 11.6965 35.9906C11.6396 35.8898 11.6173 35.7735 11.633 35.6592C11.6856 35.3928 11.9616 35.5357 12.1194 35.4058Z" fill="black"/>
<path d="M37.9818 29.9545C37.9818 30.169 37.6729 30.3769 37.5283 30.2859C37.3038 30.1428 37.0966 29.975 36.9105 29.7856C36.7528 29.6232 36.9105 29.4737 37.0353 29.3893C37.0858 29.366 37.1407 29.354 37.1964 29.354C37.252 29.354 37.3069 29.366 37.3574 29.3893C37.5296 29.5064 37.6922 29.6368 37.8437 29.7791C37.8947 29.8336 37.9409 29.8923 37.9818 29.9545Z" fill="black"/>
<path d="M25.4219 10.0272C25.297 10.1637 25.1722 10.3001 25.0341 10.4235C24.124 11.2716 23.3287 12.2325 22.6681 13.2824C22.1529 14.1681 21.9236 15.1882 22.0109 16.2062C22.0494 17.0437 22.2564 17.8651 22.6198 18.6226C22.9832 19.3801 23.4956 20.0584 24.1271 20.6179C25.0759 21.5091 25.9775 22.4482 26.8284 23.4312C28.5964 25.5364 28.5241 27.8754 27.4199 30.208C26.9576 31.1796 26.2529 32.019 25.3723 32.6475C24.4917 33.2761 23.4639 33.673 22.3854 33.801C20.7881 34.0408 19.1567 33.709 17.7848 32.8654C15.465 31.4751 13.671 29.3705 12.6781 26.8748C11.9528 25.195 11.5451 23.3981 11.4753 21.573C11.4791 19.9051 11.828 18.2556 12.5006 16.726C13.6282 13.8905 15.701 11.5204 18.3763 10.0077C19.4562 9.40564 20.6216 8.96758 21.8334 8.70825C21.911 8.68872 21.9923 8.68872 22.07 8.70825C22.1554 8.70825 22.2738 8.79921 22.2935 8.87718C22.3132 8.95515 22.2277 9.05261 22.1554 9.10459C21.6231 9.53341 21.0907 9.96224 20.5518 10.4041C19.3883 11.3146 18.3595 12.3819 17.4956 13.5748C16.9937 14.3469 16.6395 15.2036 16.4506 16.1022C15.8199 18.2398 15.9192 20.5234 16.7332 22.5996C17.0618 23.4377 17.5745 24.2044 17.9557 25.0296C18.4026 25.9717 18.8298 26.9268 19.1978 27.9014C19.3925 28.4462 19.7632 28.9125 20.2525 29.2284C20.7419 29.5443 21.3228 29.6922 21.9057 29.6492C22.4683 29.6328 23.0107 29.4384 23.4532 29.0946C23.8957 28.7507 24.2148 28.2755 24.3637 27.739C24.4336 27.4066 24.4324 27.0636 24.3603 26.7317C24.2882 26.3999 24.1467 26.0866 23.945 25.8119C23.7433 25.5373 23.4858 25.3073 23.1889 25.1368C22.8921 24.9662 22.5624 24.8589 22.2211 24.8217C21.8721 24.7762 21.5186 24.7762 21.1696 24.8217C19.9931 24.9841 19.5396 24.6722 19.0599 23.938C18.3158 22.8294 17.8309 21.571 17.6402 20.254C17.3254 18.3702 17.6392 16.4363 18.534 14.7443C19.1411 13.569 20.0012 12.5395 21.0537 11.7279C22.1063 10.9164 23.3258 10.3425 24.6267 10.0467C24.8039 10.0054 24.9841 9.97717 25.1656 9.96224C25.2444 9.95567 25.3235 9.95567 25.4022 9.96224L25.4219 10.0272Z" fill="white"/>
<path d="M24.6201 34.8405L25.2773 34.4051C26.1514 33.8204 27.0584 33.2811 27.9063 32.6444C29.5451 31.3354 30.8206 29.6362 31.6131 27.7064C32.0857 26.5065 32.3092 25.2249 32.2703 23.9379C32.3098 22.1511 31.5014 20.6438 30.6207 19.1754C30.4169 18.8782 30.1243 18.6514 29.7837 18.5267C29.4431 18.4021 29.0716 18.3858 28.7212 18.4801C28.0657 18.5773 27.397 18.4322 26.8429 18.0726C26.2888 17.713 25.8882 17.1642 25.7177 16.5309C25.6417 16.1895 25.6374 15.8363 25.7052 15.4933C25.7729 15.1502 25.9112 14.8245 26.1114 14.5364C26.3117 14.2482 26.5697 14.0038 26.8694 13.8183C27.1691 13.6328 27.5041 13.51 27.8537 13.4577C28.4041 13.3852 28.964 13.4385 29.4902 13.6136C29.7578 13.6912 30.0056 13.8239 30.2175 14.0031C30.4294 14.1823 30.6004 14.4039 30.7193 14.6532C30.969 15.173 31.1596 15.7188 31.3765 16.2386C31.876 17.2457 32.3755 18.2527 32.9144 19.2468C33.6881 20.6981 34.1175 22.3044 34.1698 23.9441C34.2221 25.5837 33.896 27.2136 33.2164 28.7101C32.5368 30.2067 31.5213 31.5306 30.2471 32.5815C28.9729 33.6324 27.4734 34.3827 25.8622 34.7755C25.4757 34.8577 25.0853 34.9206 24.6923 34.9639L24.6201 34.8405Z" fill="white"/>
</g>
<defs>
<clipPath id="clip0_175_1629">
<rect width="33" height="33" fill="white" transform="translate(7.54498 8)"/>
</clipPath>
</defs>
</svg>
