<svg width="128" height="134" viewBox="0 0 128 134" fill="none" xmlns="http://www.w3.org/2000/svg">
<g clip-path="url(#clip0_233_992)">
<path d="M127.299 20.4882C127.499 25.6979 127.95 32.1099 128 38.4717C128.05 43.982 127.599 49.4422 127.449 54.9525C127.399 57.2067 127.75 59.4108 127.75 61.665C127.8 65.4721 127.7 69.2792 127.7 73.0863C127.7 75.7412 127.75 78.3962 127.75 81.0011C127.75 89.9177 127.95 98.8343 127.7 107.751C127.499 114.664 126.748 121.527 126.198 128.389C125.897 132.397 124.546 133.599 119.74 133.95C118.038 134.05 116.286 133.699 114.534 133.449C113.533 133.299 112.582 132.848 111.631 132.798C105.674 132.547 99.7168 132.197 93.7598 132.247C88.7039 132.297 83.5979 133.098 78.542 133.048C69.8819 132.948 61.2217 132.197 52.6116 132.146C44.402 132.096 36.1423 132.798 27.8826 132.898C22.6765 132.948 17.4204 132.597 12.2143 132.447C9.66128 132.347 7.05823 132.197 4.50524 132.046C1.80207 131.896 1.00113 130.844 1.20137 128.189C2.0023 117.219 2.35272 106.248 0.600662 95.3779C-0.650805 87.8138 0.30031 80.2998 0.650721 72.7356C0.901014 67.6261 0.700779 62.4665 0.400427 57.357C-4.19635e-05 50.5443 -0.400511 43.7816 0.901014 37.019C1.65189 32.9614 1.65189 28.7035 1.65189 24.5958C1.65189 18.1338 1.4016 11.6717 1.20137 5.20967C1.15131 3.05566 1.90219 1.9536 4.00465 1.80332C8.3097 1.50276 12.6648 0.901637 16.9698 0.951731C25.9303 1.00182 34.9409 1.45267 43.9014 1.65304C46.7047 1.70313 49.558 1.75323 52.3613 1.55285C65.9773 0.550983 79.5932 0.200329 93.2593 1.2022C100.468 1.75323 107.776 0.450796 115.035 0.0500487C117.337 -0.0501382 119.69 -0.0501382 121.993 0.100142C124.846 0.300516 125.998 2.20407 126.148 4.80893C126.548 9.66799 126.899 14.477 127.299 20.4882ZM123.795 31.2082H123.845C123.845 30.3566 123.895 29.5551 123.845 28.7035C123.345 21.6403 122.744 14.6272 122.293 7.56407C122.093 3.95734 120.992 2.95547 117.488 3.4564C116.737 3.55659 116.036 3.85715 115.285 3.95734C112.181 4.2579 109.028 4.55846 105.924 4.80893C104.122 4.90911 102.32 4.80893 100.518 4.90911C97.7645 5.05939 95.0614 5.41005 92.3081 5.35995C88.0031 5.30986 83.648 4.75883 79.3429 4.85902C69.8318 5.05939 60.3707 5.8108 50.9096 5.86089C41.5987 5.86089 32.2878 5.10949 22.9268 5.0093C17.5205 4.90911 12.2143 5.51023 6.90805 5.71061C5.35624 5.7607 5.40629 6.5121 5.40629 7.81453C5.45635 16.13 5.55647 24.4456 5.20606 32.7611C4.90571 39.7241 3.35389 46.637 4.25494 53.65C4.5553 55.9543 4.95577 58.2586 5.05588 60.5629C5.20606 64.6205 5.35623 68.628 5.20606 72.6856C5.00582 77.7951 4.20489 82.9046 4.15483 88.0142C4.10477 91.8213 5.05588 95.6284 5.156 99.4355C5.40629 107.501 5.50641 115.566 5.60653 123.631C5.65659 127.588 5.60653 127.588 9.66128 127.838C10.0117 127.838 10.312 127.989 10.6625 127.989C16.4693 128.189 22.3762 128.941 28.1329 128.44C39.3961 127.488 50.6093 127.738 61.8224 128.289C69.4814 128.64 77.1404 128.64 84.7993 128.69C93.5095 128.74 102.22 128.69 110.93 128.69C111.681 128.69 112.382 128.941 113.133 129.091C114.835 129.441 116.537 129.992 118.239 130.093C121.542 130.343 122.143 129.542 122.293 126.286C122.644 120.575 123.244 114.864 123.495 109.104C123.795 101.69 123.945 94.3259 123.995 86.9121C124.045 81.8527 123.895 76.7932 123.895 71.7338C123.895 68.9786 124.246 66.2736 124.246 63.5185C124.196 60.1121 123.895 56.7558 123.845 53.3996C123.745 46.0358 123.795 38.622 123.795 31.2082Z" fill="#7BC4CC"/>
<path d="M63.8247 106.95C60.1704 106.248 57.7676 107.851 55.2647 109.354C54.2635 109.955 52.2612 110.306 51.5103 109.755C50.5592 109.003 50.2588 107.25 50.0586 105.898C49.9585 105.347 50.7594 104.395 51.4102 104.094C56.416 101.79 61.7223 101.089 67.1286 102.04C68.0797 102.191 68.8806 103.193 69.7817 103.844C69.0809 104.645 68.5302 105.847 67.6792 106.198C66.3276 106.749 64.7758 106.799 63.8247 106.95Z" fill="#7BC4CC"/>
<path d="M87.0521 44.7835C86.8018 44.5832 86.101 44.0321 85.3501 43.431C86.101 42.8299 86.8519 41.828 87.6528 41.7779C92.7588 41.277 97.9148 40.8763 103.021 40.6258C103.772 40.5757 104.523 41.4774 105.273 41.9282C104.573 42.4792 103.972 43.5312 103.221 43.5813C98.1151 44.1323 92.959 44.4329 87.0521 44.7835Z" fill="#7BC4CC"/>
<path d="M42.0493 44.8335C38.5952 45.1842 35.1412 45.6851 31.6871 45.8354C30.7861 45.8855 29.034 45.1341 28.984 44.5831C28.7337 42.8298 30.3356 42.93 31.587 42.7797C35.1412 42.429 38.6453 41.9782 42.1995 41.6275C43.2507 41.5274 44.402 41.3771 45.4032 41.6275C46.104 41.8279 46.6046 42.7296 47.2053 43.3307C46.5546 43.8818 46.0039 44.6832 45.3031 44.8836C44.3019 45.1341 43.1506 44.9337 42.0993 44.9337C42.0493 44.9337 42.0493 44.8836 42.0493 44.8335Z" fill="#7BC4CC"/>
<path d="M95.4619 55.5538C96.3129 54.101 96.9637 52.9489 97.7146 51.8969C98.2152 51.2457 98.8659 50.3941 99.5667 50.2939C100.067 50.1938 101.069 50.9952 101.369 51.6465C102.37 53.8005 100.218 57.1066 97.1139 58.359C94.5609 59.4109 92.108 58.5093 91.3071 55.9044C91.0067 54.9526 91.1569 53.1493 91.8076 52.6984C93.2093 51.6966 93.9602 53.0491 94.4107 54.3014C94.5609 54.5018 94.7611 54.6521 95.4619 55.5538Z" fill="#7BC4CC"/>
<path d="M62.1229 66.5742C62.8237 67.526 63.5245 68.077 63.6747 68.7282C64.0251 70.3312 64.0752 72.0344 64.3255 73.6875C64.5257 74.9899 64.4256 76.4927 65.1264 77.4946C66.3278 79.2479 65.1264 79.7989 64.0752 80.3499C62.7737 81.0512 61.322 80.6505 61.1718 79.1477C60.7713 75.6912 60.6211 72.2348 60.5711 68.7282C60.521 68.1772 61.4221 67.526 62.1229 66.5742Z" fill="#7BC4CC"/>
<path d="M44.3019 53.4999C44.2518 56.4053 41.4986 59.1604 39.0457 59.4109C36.743 59.6113 34.0899 57.5074 33.7896 55.0528C33.7395 54.4016 34.3402 53.6502 34.5905 52.9489C35.2413 53.2995 36.1423 53.4498 36.5929 53.9507C38.5952 56.4554 39.0958 56.3552 40.6476 53.55C41.0481 52.7986 42.1494 52.1474 43.0004 52.0472C43.4509 51.9971 44.0516 53.1993 44.3019 53.4999Z" fill="#7BC4CC"/>
</g>
<defs>
<clipPath id="clip0_233_992">
<rect width="128" height="134" fill="white"/>
</clipPath>
</defs>
</svg>
